<svg width="80" height="80" viewBox="0 0 80 80" fill="none" xmlns="http://www.w3.org/2000/svg">
<path d="M39.4182 0.0638861C38.7854 0.287353 38.2909 0.783946 38.0073 1.4709C37.8618 1.83507 37.8545 2.00887 37.8327 4.78979L37.8109 7.72797L37.4691 7.88522C36.5818 8.29077 35.5055 9.2343 34.88 10.1613C33.9709 11.5021 33.5782 12.876 33.5782 14.6389C33.5855 15.8307 33.7309 16.6087 34.1528 17.6267L34.4146 18.2557L31.0255 26.1847C29.1637 30.5464 27.6292 34.1301 27.6074 34.1467C27.5564 34.2046 26.6183 33.4515 25.731 32.6486C24.2328 31.2747 22.6983 29.4042 21.4983 27.4758C20.8947 26.5074 20.6838 26.3088 20.2401 26.3088C19.971 26.3088 19.862 26.3916 17.7674 28.1379C15.7893 29.7932 15.6002 29.967 15.4474 30.2981C15.2293 30.7864 15.3093 31.0347 16.102 32.2928C18.1092 35.4875 20.931 38.5664 23.7892 40.6769C24.2037 40.9831 24.5528 41.2397 24.5674 41.248C24.5746 41.2563 23.6292 43.4992 22.4656 46.2222C19.702 52.6944 19.5274 53.1248 19.3965 53.8697C19.3165 54.2918 19.2656 55.3015 19.2292 57.0645C19.1856 59.415 19.1929 59.655 19.3092 59.9364C19.5492 60.5158 20.1165 60.822 20.6401 60.6565C20.8147 60.5985 21.4474 60.0688 22.5092 59.0757C24.2983 57.3955 24.6256 57.0645 24.9892 56.5016C25.1346 56.2865 26.371 53.4807 27.7455 50.2611C29.1201 47.0498 30.2619 44.4013 30.2764 44.3848C30.291 44.36 30.4001 44.3848 30.5164 44.4344C31.7164 44.9559 34.5964 45.7008 36.4727 45.9822C37.7455 46.1642 41.9782 46.1973 43.2 46.0235C45.1709 45.7504 47.1054 45.2787 48.7272 44.691L49.6072 44.3682L49.7599 44.7158C49.8472 44.8979 50.9599 47.4968 52.2326 50.4763C53.5053 53.4559 54.6617 56.0961 54.8072 56.3444C55.1781 56.9734 55.4617 57.2714 57.338 59.026C58.4289 60.0357 59.098 60.6068 59.2726 60.6565C59.7453 60.8055 60.3126 60.4992 60.5526 59.9778C60.6471 59.7709 60.6689 59.4067 60.6617 57.8342C60.6471 55.2188 60.5598 53.969 60.3417 53.249C60.2471 52.9262 56.858 44.9228 52.8144 35.4544L45.4618 18.2392L45.709 17.6515C46.1454 16.617 46.2908 15.8307 46.2836 14.5561C46.2763 13.6871 46.2399 13.2898 46.1163 12.7767C45.6072 10.6248 44.269 8.83702 42.5018 7.93488L42.0363 7.69486V4.88911C42.0363 1.53711 42.0218 1.46262 41.3818 0.717733C41.0691 0.361842 40.88 0.22114 40.5818 0.121822C40.1673 -0.0188793 39.7236 -0.0354324 39.4182 0.0638861ZM40.8363 10.7075C41.7454 10.9806 42.5891 11.7421 43.0327 12.6939C43.3381 13.3643 43.4327 13.7947 43.4254 14.5892C43.4181 18.2309 39.4691 19.9607 37.3382 17.2625C36.3418 16.0045 36.1382 14.0761 36.8509 12.6525C37.6582 11.0469 39.2873 10.2523 40.8363 10.7075ZM43.2872 29.5284C45.0763 33.7246 46.5454 37.1925 46.5454 37.2256C46.5454 37.3663 44.6181 37.896 43.3818 38.0946C40.8073 38.5167 38.6982 38.4919 36.1746 38.0201C34.8 37.7553 33.3382 37.3083 33.3673 37.1594C33.4255 36.8531 39.8909 21.8395 39.9563 21.8643C39.9927 21.8809 41.4909 25.3239 43.2872 29.5284Z" fill="black"/>
<path d="M0.0363634 30.6535C0.101817 31.9612 0.392724 33.0785 1.27999 35.4208C1.99999 37.3409 2.21089 38.1272 2.57453 40.2957C2.59634 40.4115 2.59634 40.1632 2.57453 39.7577C2.51635 38.2762 2.08726 36.5878 1.16363 34.1462C0.552723 32.524 0.283634 31.6136 0.10909 30.5707L0 29.9086L0.0363634 30.6535Z" fill="black"/>
<path d="M79.874 30.5458C79.7358 31.5307 79.4522 32.5073 78.834 34.1378C77.8158 36.8276 77.4304 38.5078 77.3504 40.5852C77.314 41.5453 77.3213 41.5536 77.3794 40.8252C77.5249 39.1037 77.9103 37.5643 78.7176 35.4206C79.5903 33.1198 79.8812 32.0024 79.9685 30.6782C79.9976 30.2726 80.0049 29.9498 79.9903 29.9498C79.9685 29.9498 79.9176 30.223 79.874 30.5458Z" fill="black"/>
<path d="M2.00855 49.3175C2.11764 51.7922 3.04854 53.4641 5.52852 55.6739C7.36851 57.3044 8.1176 58.1651 8.96123 59.6218C9.77577 61.0123 10.2485 62.2289 11.0412 64.9436C11.8339 67.6252 12.4812 68.875 13.5721 69.8102C14.6339 70.7206 15.6448 71.151 17.8848 71.6642C21.6302 72.5167 23.3029 73.4767 25.7829 76.2163C28.3211 79.0055 29.0556 79.5434 30.8811 79.8993C32.052 80.1311 33.1429 79.9738 35.0192 79.3117C37.2956 78.5171 38.4083 78.2854 40.0083 78.2854C41.521 78.2854 42.8082 78.542 44.6191 79.1958C47.3537 80.189 49.0409 80.2469 50.6846 79.3945C51.6809 78.873 52.3791 78.2523 54.0736 76.3818C56.7063 73.4685 58.299 72.5332 62.1172 71.6642C63.7826 71.2834 64.5463 71.0269 65.3463 70.5717C66.0953 70.1413 66.4663 69.8433 66.9462 69.2971C67.7826 68.3536 68.2626 67.3107 68.9244 65.0512C69.739 62.2786 70.2335 61.004 71.0408 59.6218C71.8771 58.1817 72.6626 57.2713 74.3644 55.7732C76.9025 53.5385 77.8771 51.817 77.9934 49.3506L78.0371 48.5312L77.928 49.2099C77.6007 51.3122 76.5971 52.8847 74.328 54.8628C73.1135 55.9222 71.7462 57.4699 71.1571 58.4631C70.2553 59.9777 69.8408 61.004 69.019 63.7601C68.3426 66.0361 68.1899 66.4334 67.6735 67.3273C66.6044 69.1481 65.1426 70.0585 62.219 70.7124C60.0445 71.2007 58.9754 71.5814 57.6736 72.3263C56.4154 73.0464 55.4336 73.9071 53.6882 75.8273C53.0045 76.5804 52.2045 77.3915 51.9136 77.6233C49.79 79.3282 48.1028 79.4855 44.6919 78.2937C42.6119 77.5736 41.5719 77.3667 40.001 77.3667C38.401 77.3667 37.2156 77.6067 35.0919 78.3682C33.6301 78.8896 32.8301 79.0551 31.8192 79.0468C30.7574 79.0468 30.0738 78.8648 29.1283 78.3351C28.2411 77.8385 27.6665 77.3253 26.2484 75.7611C23.3466 72.5498 21.7902 71.6228 17.8121 70.7206C17.0993 70.5551 16.263 70.3316 15.9357 70.2158C14.2048 69.595 13.0994 68.6846 12.2557 67.2031C11.7903 66.392 11.6376 65.9616 10.9758 63.7435C10.663 62.6841 10.2412 61.4095 10.0449 60.9129C9.07759 58.4548 7.88487 56.8078 5.67398 54.8628C3.49218 52.9509 2.41582 51.3122 2.11764 49.4417C2.07401 49.1685 2.0231 48.854 2.00855 48.7381C1.98673 48.6223 1.98673 48.8871 2.00855 49.3175Z" fill="black"/>
</svg>
