<svg width="80" height="80" viewBox="0 0 80 80" fill="none" xmlns="http://www.w3.org/2000/svg">
<path d="M37.9009 0.0252623L37.6941 0.0503396V15.8785C37.6941 28.5222 37.6753 31.7004 37.6189 31.6628C37.575 31.6377 37.6502 31.7443 37.7944 31.8947C38.2331 32.3648 38.91 33.2048 39.4616 33.9571L39.988 34.6842L40.2951 34.2454C41.298 32.8413 42.6894 31.2616 43.8175 30.2461C47.2772 27.1369 51.044 25.6011 55.2119 25.6011C57.0358 25.5948 58.4711 25.8205 60.1257 26.3658C63.8988 27.6133 67.0137 30.2962 68.7185 33.7878C70.2227 36.8532 70.5486 40.3009 69.6587 43.6483C68.3237 48.6694 64.0993 52.675 58.8471 53.9099C57.7942 54.1607 56.948 54.2673 55.776 54.3111C49.9785 54.5117 44.6511 51.5843 40.4832 45.905C40.2137 45.5351 39.9755 45.2593 39.9504 45.2844C39.9254 45.3095 39.6621 45.6668 39.3675 46.0742L38.8223 46.8077V63.4983C38.8223 76.6247 38.8411 79.8807 38.9038 79.9245C38.9915 79.9872 41.8307 79.9308 43.0278 79.843C48.5433 79.4231 54.0274 77.8308 58.7782 75.2858C64.6634 72.1264 69.621 67.6444 73.275 62.1657C78.5398 54.2798 80.8024 44.9208 79.7432 35.4302C78.9597 28.3968 76.3085 21.7208 72.0278 15.9976C68.261 10.9514 63.2657 6.80786 57.6563 4.05596C53.2314 1.88703 48.8378 0.645851 43.7736 0.131828C42.8335 0.0377989 38.371 -0.043692 37.9009 0.0252623Z" fill="black"/>
<path d="M22.8406 3.8402C17.6636 6.28494 12.9379 9.95206 9.19612 14.4404C6.31931 17.8943 3.99405 21.9313 2.40836 26.2566C-0.29296 33.6097 -0.737956 41.8905 1.15485 49.5444C3.8875 60.5896 11.0262 69.7794 21.0857 75.2142C21.8942 75.653 30.6437 80.4171 38.8934 79.9705C38.9122 79.9705 38.8934 72.5871 38.8934 66.5003L38.8229 46.8254V46.8254C35.0171 51.2136 29.6169 53.901 23.8214 54.291L23.4674 54.3148C23.3483 54.296 23.0788 54.2646 22.8719 54.2458C22.2201 54.1769 20.929 53.9073 20.1894 53.6816C16.8739 52.6787 13.972 50.516 12.098 47.6513C10.6502 45.4447 9.90436 43.0627 9.82288 40.3923C9.7414 37.6278 10.4058 35.0702 11.8222 32.7133C12.9002 30.9205 14.4295 29.3282 16.2283 28.1184C17.6636 27.1593 19.7256 26.2817 21.3364 25.9495C22.2264 25.7614 23.1226 25.6298 23.4987 25.6298C23.6804 25.6298 32.1009 25.1518 37.7652 31.7808C37.7652 30.2999 37.9298 23.2477 37.7652 14.4404C37.7778 8.36611 37.7652 0.00163078 37.7652 0.00163078C37.7652 0.00789936 31.3018 -0.155458 22.8406 3.8402Z" fill="black"/>
<path d="M54.1487 30.7985C51.7921 31.1245 49.8868 31.9645 47.9814 33.5128C46.684 34.5534 45.324 36.0766 44.2397 37.6877C43.6819 38.5089 42.8984 39.8378 42.8984 39.9506C42.8984 40.076 43.45 41.0288 44.0642 41.9628C46.5963 45.8055 49.7802 48.2565 53.1271 48.9398C54.3806 49.1968 56.1167 49.2093 57.3076 48.9648C59.1189 48.595 60.8613 47.6861 62.19 46.4073C63.5876 45.0595 64.4463 43.5174 64.8474 41.6494C65.0354 40.7467 65.0417 39.142 64.8474 38.2706C64.1141 34.9295 61.7826 32.3719 58.4545 31.2624C57.4016 30.9113 56.7811 30.811 55.4649 30.7922C54.8444 30.7797 54.2553 30.786 54.1487 30.7985ZM56.2985 37.0107L56.311 38.5339H57.8152H59.3194V40.007V41.4802H57.8152H56.311V42.9846V44.4891H54.8381H53.3653V42.9846V41.4802L51.8485 41.4676L50.3255 41.4488L50.3067 39.9882L50.2942 38.5339H51.8297H53.3653V36.9981V35.4623L54.8256 35.4749L56.2797 35.4937L56.2985 37.0107Z" fill="black"/>
<path d="M25.8318 49.1351C28.1884 48.8091 30.0937 47.9691 31.999 46.4208C33.2964 45.3802 34.6565 43.8569 35.7408 42.2459C36.2986 41.4247 37.082 40.0958 37.082 39.983C37.082 39.8576 36.5305 38.9048 35.9163 37.9708C33.3842 34.1281 30.2003 31.6771 26.8534 30.9938C25.5999 30.7368 23.8638 30.7243 22.6729 30.9688C20.8616 31.3386 19.1192 32.2475 17.7905 33.5263C16.3928 34.8741 15.5342 36.4161 15.133 38.2842C14.945 39.1869 14.9388 40.7916 15.133 41.6629C15.8664 45.0041 18.1979 47.5617 21.526 48.6712C22.5789 49.0223 23.1994 49.1226 24.5156 49.1414C25.1361 49.1539 25.7252 49.1476 25.8318 49.1351Z" fill="black"/>
</svg>
