<svg width="70" height="70" viewBox="0 0 70 70" fill="none" xmlns="http://www.w3.org/2000/svg">
<path d="M33.2305 0.0684712C32.9616 0.0968172 32.3033 0.160596 31.7796 0.203115C30.8595 0.281067 29.458 0.472403 28.5592 0.635393C28.092 0.720431 25.905 1.24483 25.6218 1.33696C25.5228 1.3653 25.3033 1.42908 25.1264 1.47869C24.9494 1.52829 24.4823 1.67711 24.0789 1.81175C23.6754 1.9464 23.3074 2.06687 23.2649 2.07396C23.1517 2.1023 22.9535 2.17317 22.6138 2.32907C22.458 2.39285 22.1254 2.52749 21.8706 2.61962C21.6158 2.71174 21.1628 2.90308 20.8584 3.0519C20.5541 3.20071 20.2922 3.32118 20.271 3.32118C20.2214 3.32118 18.5228 4.17156 18.1689 4.37707C18.0415 4.44794 17.7725 4.60384 17.5672 4.7314C17.362 4.85187 17.178 4.95108 17.1638 4.95108C17.1496 4.95108 16.6613 5.2558 16.088 5.63139C12.8746 7.729 10.0435 10.3014 7.6724 13.2777C5.60566 15.8714 3.75834 19.0603 2.56926 22.1005C2.39232 22.5469 2.22952 22.9792 2.19414 23.0571C1.76946 24.1059 0.976744 27.0256 0.707786 28.5492C0.665319 28.8043 0.615774 29.0736 0.59454 29.1515C0.49545 29.6051 0.276036 31.5114 0.205258 32.4822C0.162791 33.1058 0.09909 33.6231 0.0637007 33.6373C-0.0212336 33.6727 -0.0212336 36.2239 0.0637007 36.3089C0.09909 36.3514 0.162791 36.89 0.205258 37.5136C0.276036 38.4845 0.49545 40.3908 0.59454 40.8443C0.615774 40.9222 0.665319 41.1915 0.707786 41.4466C0.976744 42.9702 1.76946 45.8899 2.19414 46.9387C2.22952 47.0167 2.39232 47.4489 2.56926 47.8954C2.96562 48.9017 3.26289 49.5607 3.90698 50.8363C6.65319 56.2858 10.8504 60.9417 16.088 64.3644C16.6613 64.74 17.1496 65.0448 17.1638 65.0448C17.178 65.0448 17.362 65.144 17.5672 65.2644C17.7725 65.392 18.0415 65.5479 18.1689 65.6188C18.5228 65.8243 20.2214 66.6747 20.271 66.6747C20.2922 66.6747 20.5683 66.8022 20.8797 66.951C21.1982 67.1069 21.5238 67.2557 21.6087 67.277C21.6936 67.3054 22.0192 67.4329 22.3306 67.5605C23.0101 67.8368 23.1587 67.8935 23.2578 67.9148C23.3003 67.929 23.633 68.0353 24.001 68.1628C24.3691 68.2904 24.7654 68.4179 24.8787 68.4534C24.999 68.4817 25.2042 68.5384 25.3387 68.5809C26.1951 68.8148 27.9151 69.2471 28.2406 69.2967C30.2224 69.6297 31.2558 69.7644 32.275 69.8282C32.6431 69.8565 33.1527 69.9061 33.4075 69.9415C34.002 70.0195 35.998 70.0195 36.5925 69.9415C36.8473 69.9061 37.3711 69.8565 37.7604 69.8282C38.7867 69.7644 40.0677 69.5943 41.7947 69.2967C42.1132 69.24 43.5996 68.8786 44.1304 68.7297C44.2508 68.7014 44.5339 68.6164 44.7674 68.5597C45.001 68.4959 45.5248 68.3258 45.9353 68.1912C46.3458 68.0494 46.728 67.929 46.7846 67.9148C46.8979 67.8935 48.186 67.3833 48.6603 67.1707C48.816 67.0998 49.1062 66.9723 49.2973 66.8872C51.6047 65.8739 54.3296 64.2298 56.4813 62.5503C60.2679 59.5952 63.5875 55.6409 65.8099 51.4386C66.3124 50.482 66.3903 50.3261 66.6734 49.7024C68.0253 46.7474 69.1294 43.0765 69.4975 40.3128C69.6886 38.9097 69.7877 37.9884 69.8301 37.2089C69.8584 36.7341 69.908 36.3231 69.9363 36.3018C70.0212 36.2522 70.0212 33.6515 69.9363 33.6515C69.9009 33.6515 69.8584 33.2617 69.8301 32.7798C69.7877 32.0216 69.7098 31.2704 69.5046 29.7185C69.1507 26.9831 68.0324 23.2626 66.6734 20.2934C66.3903 19.6698 66.3124 19.5139 65.8099 18.5572C63.5945 14.362 60.2679 10.4006 56.4813 7.44554C55.2497 6.48886 53.7422 5.4684 52.4328 4.71014C51.7321 4.3133 49.9343 3.38496 49.3185 3.11567C49.1274 3.03064 48.8443 2.91016 48.6815 2.83221C48.1931 2.61962 46.8979 2.1023 46.7846 2.08104C46.728 2.06687 46.3458 1.9464 45.9353 1.80467C45.5248 1.67002 45.001 1.49995 44.7674 1.43617C44.5339 1.37948 44.2508 1.29444 44.1304 1.26609C43.5571 1.1031 42.1062 0.755863 41.7594 0.699171C41.547 0.663739 41.087 0.585787 40.7331 0.522008C39.7846 0.366105 38.5531 0.210202 37.7958 0.167682C37.4277 0.146423 36.8898 0.0968172 36.6067 0.0542981C36.0051 -0.0236536 33.9525 -0.016567 33.2305 0.0684712ZM26.7614 18.8407C28.0283 18.9399 29.2032 19.1737 29.9039 19.4714C33.2305 20.8816 34.8868 23.4469 34.8938 27.1957C34.8938 28.2799 34.8231 28.7405 34.5258 29.6476C33.9525 31.3909 32.636 32.631 30.8241 33.12C30.5693 33.1909 30.364 33.2759 30.364 33.3042C30.364 33.3397 30.5551 33.368 30.7887 33.368C31.5743 33.368 32.6431 33.7436 33.365 34.2822C35.1203 35.5861 35.9697 37.8113 35.9697 41.0923C35.9626 42.2899 35.9414 42.5947 35.7856 43.3742C35.4247 45.1742 34.7594 46.471 33.5915 47.6474C32.2184 49.0363 30.8382 49.7308 28.3468 50.2835L27.4975 50.4749L18.5228 50.5103C13.5824 50.5387 9.52679 50.5387 9.51264 50.5245C9.49848 50.5103 9.48433 43.3529 9.48433 34.6294V18.7698H17.6451C22.5925 18.7698 26.181 18.7981 26.7614 18.8407ZM55.6886 22.6107L55.6673 24.5453L49.1982 24.5666C44.0667 24.5807 42.7149 24.5666 42.6653 24.4957C42.6016 24.3823 42.5875 20.7965 42.6582 20.7328C42.6795 20.7044 45.6309 20.6832 49.2053 20.6832H55.7027L55.6886 22.6107ZM50.996 26.9618C54.9949 27.2594 58.0809 29.4917 59.5106 33.12C60.2326 34.9554 60.5157 36.5995 60.5157 39.0089C60.5157 40.3695 60.5015 40.5892 60.4024 40.6246C60.3458 40.6459 56.6582 40.6671 52.2133 40.6671C47.7755 40.6671 44.1163 40.6884 44.088 40.7167C44.0101 40.8089 44.1517 41.9923 44.3074 42.5521C44.5268 43.36 44.8878 44.0049 45.4328 44.586C46.1618 45.3513 46.9616 45.7694 48.1648 46.0316C49.3964 46.2938 51.2932 46.1521 52.4044 45.7269C53.0202 45.4789 53.36 45.2592 53.8059 44.7986C54.2801 44.3096 54.549 43.8065 54.6623 43.2183L54.7472 42.7931H57.4864C58.9939 42.7931 60.2396 42.8143 60.2538 42.8427C60.2679 42.8781 60.2538 43.2254 60.2184 43.6293C59.9353 47.0308 57.9535 49.3835 54.4216 50.5103C52.9636 50.9709 51.5197 51.1764 49.6512 51.1694C46.0202 51.1694 43.5359 50.4536 41.3842 48.7883C37.6188 45.8757 36.2599 40.0719 38.093 34.679C38.2133 34.3247 38.3974 33.8428 38.5106 33.5948C38.6239 33.3538 38.7159 33.1342 38.7159 33.12C38.7159 33.035 39.5228 31.6885 39.7917 31.3271C41.1365 29.4988 42.906 28.2232 45.0506 27.5216C45.8857 27.2524 46.5935 27.0964 47.4924 26.9972C48.5753 26.8697 49.6441 26.8555 50.996 26.9618Z" fill="black"/>
<path d="M16.7387 24.5242C16.7175 24.5738 16.7104 26.1612 16.7175 28.0533L16.7387 31.4902H21.4809H26.2231L26.6265 31.3272C27.0653 31.1501 27.4971 30.732 27.7448 30.2501C27.8297 30.0871 27.9571 29.6477 28.0421 29.2722C28.1624 28.6981 28.1836 28.4289 28.1482 27.6281C28.0916 26.225 27.8085 25.4667 27.1432 24.9281C26.4991 24.4108 26.7893 24.4391 21.5092 24.4391C17.7792 24.4391 16.76 24.4604 16.7387 24.5242Z" fill="black"/>
<path d="M16.7183 40.646L16.7395 44.8838H21.4463C26.5777 44.8838 26.514 44.8909 27.3917 44.4728C28.2339 44.0688 28.8709 43.2397 29.1116 42.2263C29.4442 40.8586 29.3027 39.328 28.7506 38.2295C28.3259 37.3933 27.4412 36.6918 26.5423 36.4933C26.3441 36.4437 24.4473 36.4154 21.4604 36.4154H16.7041L16.7183 40.646Z" fill="black"/>
<path d="M48.5185 31.5962C46.5084 31.9151 44.9442 33.3537 44.2222 35.5505C44.109 35.9048 44.0241 36.252 44.0524 36.3087C44.0878 36.4009 44.7389 36.415 49.2334 36.415H54.379L54.3365 35.8623C54.2586 34.7072 53.6641 33.4458 52.836 32.6734C52.3476 32.2127 51.7389 31.8797 51.0665 31.7025C50.5569 31.5608 49.106 31.5041 48.5185 31.5962Z" fill="black"/>
</svg>
