<svg width="80" height="80" viewBox="0 0 80 80" fill="none" xmlns="http://www.w3.org/2000/svg">
<path d="M31.8852 7.29391V10.7342H23.088V0.078125H31.8852V3.84844H26.8583V7.29391H31.8852ZM40.9285 3.84844H44.4429V0.078125H35.6447C35.6447 0.078125 35.6447 1.97063 35.6447 3.84844C36.8218 5.02547 37.4355 5.58891 39.1379 7.29125C38.1427 7.29125 35.6447 7.29453 35.6447 7.29453V10.7342H44.4429V7.29391L40.9285 3.84844ZM53.398 3.84844H56.9121V0.078125H48.1143C48.1143 0.078125 48.1143 1.97063 48.1143 3.84844C49.291 5.02547 49.905 5.58891 51.6072 7.29125C50.6127 7.29125 48.1143 7.29453 48.1143 7.29453V10.7342H56.9122V7.29391L53.398 3.84844ZM68.4994 15.7986L63.1552 73.687L40 79.9214L16.8444 73.687L11.501 15.7986H68.4994ZM57.731 27.5692H39.9791H21.9135L22.7774 34.5597H39.9791H40.9454L39.9791 34.9619L23.4061 41.8645L23.9558 48.6973L39.9791 48.7494L48.5671 48.7767L48.0169 57.8878L39.9791 60.1509V60.1437L39.9132 60.1619L32.15 58.2022L31.6789 52.5467H31.6533H24.4525H24.4272L25.3697 63.4648L39.9791 67.785V67.7772L40.0053 67.785L54.5366 63.5434L56.4221 41.8647H39.9791H39.9385L39.9791 41.8472L57.0238 34.5598L57.731 27.5692Z" fill="black"/>
</svg>
