<svg width="80" height="80" viewBox="0 0 80 80" fill="none" xmlns="http://www.w3.org/2000/svg">
<g clip-path="url(#clip0_255_681)">
<path d="M77.4996 78.3996H2.49961V76.5996H77.4996V78.3996ZM77.4996 68.3996H39.9996V66.5996H77.4996V68.3996ZM18.5221 55.8996C14.1121 55.8996 9.62711 54.2996 6.42211 51.1296C3.31211 48.0546 1.59961 44.1096 1.59961 40.0246C1.59961 35.9396 3.31211 31.9946 6.41961 28.9171C12.6746 22.7321 23.7646 22.4871 29.6846 28.4096L51.6696 50.3921C56.8796 55.6071 66.7221 55.3221 72.3121 49.7946C75.0746 47.0596 76.5996 43.5796 76.5996 39.9946C76.5996 36.4096 75.0771 32.9296 72.3121 30.1921C66.7296 24.6671 56.8421 24.4271 51.5721 29.6946L45.6346 35.6321L44.3596 34.3596L50.2971 28.4221C56.2246 22.4921 67.3221 22.7246 73.5771 28.9121C76.6871 31.9896 78.3996 35.9246 78.3996 39.9946C78.3996 44.0646 76.6871 47.9996 73.5771 51.0746C67.3246 57.2621 56.2746 57.5471 50.3971 51.6671L28.4146 29.6821C23.1521 24.4246 13.2746 24.6696 7.68711 30.1971C4.92211 32.9346 3.39961 36.4246 3.39961 40.0246C3.39961 43.6246 4.92211 47.1146 7.68711 49.8496C13.2596 55.3571 23.1346 55.5796 28.4096 50.3096L32.8196 45.8996H24.9996V44.0996H35.8996V54.9996H34.0996V47.1621L29.6796 51.5846C26.7971 54.4671 22.6921 55.8971 18.5221 55.8996ZM39.9996 13.3996H2.49961V11.5996H39.9996V13.3996ZM77.4996 3.39961H2.49961V1.59961H77.4996V3.39961Z" fill="black"/>
</g>
<defs>
<clipPath id="clip0_255_681">
<rect width="80" height="80" fill="white"/>
</clipPath>
</defs>
</svg>
