<svg width="80" height="80" viewBox="0 0 80 80" fill="none" xmlns="http://www.w3.org/2000/svg">
<path d="M6.4375 0.302098C4.92188 0.708401 3.73438 1.39599 2.5625 2.55239C1.39062 3.74005 0.703125 4.91207 0.3125 6.49041C0 7.67806 0 8.28752 0 39.9948C0 71.702 0 72.3115 0.3125 73.4992C0.703125 75.0775 1.39062 76.2495 2.5625 77.4372C3.75 78.6092 4.92188 79.2968 6.5 79.6875C7.6875 80 8.29688 80 40 80C71.7031 80 72.3125 80 73.5 79.6875C75.0781 79.2968 76.25 78.6092 77.4375 77.4372C78.6094 76.2495 79.2969 75.0775 79.6875 73.4992C80 72.3115 80 71.702 80 39.9948C80 8.28752 80 7.67806 79.6875 6.49041C79.2812 4.88082 78.6094 3.72442 77.3594 2.48988C76.125 1.2866 75.1406 0.708401 73.5 0.302098C72.3125 -0.0104427 71.6719 -0.0104427 39.9375 0.00518431C8.53125 0.00518431 7.54688 0.0208113 6.4375 0.302098ZM52.2656 12.0536C55.5469 13.1788 57.9219 15.4603 59.1094 18.6482C59.5 19.6953 59.5938 20.2266 59.6562 21.6643C59.7969 25.0397 58.8906 27.3681 56.4844 29.7591L55.0781 31.1655L55.8594 31.8062C57.5625 33.1814 58.9531 35.4161 59.4688 37.5726C59.6562 38.3696 59.7031 39.1509 59.6562 40.4636C59.5469 43.4015 58.6719 45.3549 56.5625 47.5114C54.6094 49.4804 51.8906 50.6055 49.0938 50.6212C46.8125 50.6212 44.2656 49.8086 42.6094 48.5428C42.2031 48.2146 41.8438 47.9646 41.7969 47.9646C41.75 47.9646 41.7188 50.4024 41.7188 53.3872C41.7188 59.6536 41.6406 60.2474 40.5625 62.4196C36.7656 70.1081 25.8906 70.405 21.6094 62.9353C20.8125 61.5601 20.4219 60.138 20.3438 58.3253C20.2031 55.0905 21.125 52.6527 23.2812 50.4493C23.9219 49.7929 24.5938 49.1835 24.7656 49.0897C25.0625 48.9178 25.0625 48.9022 24.6875 48.6522C23.9688 48.1677 22.2656 46.3081 21.75 45.433C21.4688 44.9486 21.0469 44.0422 20.8125 43.4015C20.4375 42.3545 20.3906 42.0575 20.3906 39.9948C20.3906 37.932 20.4375 37.6351 20.8125 36.5881C21.0469 35.9474 21.4688 35.041 21.75 34.5566C22.2656 33.6815 23.9688 31.8218 24.6875 31.3374C25.0625 31.0874 25.0625 31.0717 24.7656 30.8998C24.5938 30.8061 23.9219 30.1966 23.2812 29.5403C21.125 27.3369 20.2031 24.8991 20.3438 21.6643C20.4062 20.2266 20.5 19.6953 20.8906 18.6482C21.5156 16.9918 22.3125 15.7572 23.5156 14.6008C25.0625 13.1006 27.0781 12.0693 29.125 11.7255C29.5625 11.6473 34.6719 11.6004 40.4688 11.6161L51.0156 11.6317L52.2656 12.0536Z" fill="black"/>
<path d="M29.844 15.1642C27.1253 15.5236 24.6721 17.727 23.969 20.4617C23.0784 23.9309 24.9846 27.5408 28.4378 28.9316C29.2503 29.2597 29.5784 29.291 33.7971 29.3379L38.2815 29.3848L38.2503 22.2276L38.2034 15.0704L34.5315 15.0548C32.5159 15.0391 30.4065 15.086 29.844 15.1642Z" fill="black"/>
<path d="M41.8281 15.1017C41.7656 15.1485 41.7188 18.399 41.7188 22.2901V29.3848L46.2187 29.3379C50.4219 29.291 50.75 29.2597 51.5625 28.9316C54.2812 27.8377 56 25.5093 56.2031 22.6495C56.4687 18.9147 53.75 15.633 50 15.1485C48.6719 14.9766 41.9844 14.9298 41.8281 15.1017Z" fill="black"/>
<path d="M29.8434 32.9161C29.234 33.0099 27.6559 33.5881 27.1247 33.9162C26.3434 34.385 25.0778 35.729 24.6403 36.5416C22.5309 40.4171 24.2965 45.0739 28.5153 46.7304C29.4059 47.0742 29.6715 47.0898 33.8747 47.1523L38.2809 47.2148V40.0108V32.8067L34.2653 32.8223C32.0465 32.838 30.0622 32.8848 29.8434 32.9161Z" fill="black"/>
<path d="M47.5144 32.9631C43.8426 33.7444 41.2488 37.448 41.8426 41.0422C42.5926 45.5272 47.1394 48.2151 51.4676 46.7149C52.9988 46.1835 54.7332 44.7146 55.4519 43.3082C57.8426 38.6357 54.6551 33.1818 49.3738 32.8849C48.7332 32.8537 47.8894 32.8849 47.5144 32.9631Z" fill="black"/>
<path d="M29.0782 50.8712C25.4063 51.8557 23.0782 55.6844 23.9219 59.3567C24.3751 61.357 25.9376 63.2791 27.8907 64.2324C28.9532 64.748 29.0313 64.7637 30.9376 64.7637C32.8126 64.7637 32.9376 64.748 33.9376 64.2636C35.7032 63.4354 37.0938 61.9352 37.8282 60.0756C38.1719 59.1848 38.1876 58.9035 38.2501 54.8718L38.3126 50.6212L34.1094 50.6368C30.9688 50.6368 29.7188 50.6993 29.0782 50.8712Z" fill="black"/>
</svg>
