<svg width="16" height="16" viewBox="0 0 16 16" fill="none" xmlns="http://www.w3.org/2000/svg">
<path d="M14.0469 5.54006L9.03441 1.69043C8.7061 1.43834 8.15444 1.43947 7.79394 1.69178C7.42891 1.94672 7.38681 2.36934 7.71122 2.63584L9.79581 4.33228H3.43106C2.90566 4.3325 2.4006 4.68431 2.30094 5.12022C2.19791 5.56403 2.55453 5.92797 3.10081 5.92965H6.32206L0.551002 10.3592C0.00865799 10.7742 -0.166373 11.4651 0.17522 11.9018C0.521627 12.3465 1.25903 12.3473 1.807 11.9043L4.94466 9.33665C4.94466 9.33665 4.89863 9.68303 4.90228 9.89109C4.99663 11.6475 6.33566 13.2757 7.99363 13.9967C10.8505 15.2621 14.7077 14.1037 15.7923 10.806C16.3081 9.07618 15.9127 7.01915 14.0468 5.54009M8.73322 11.6718C6.47688 10.4908 6.47685 7.52222 8.73322 6.34118C10.9896 5.16015 13.8253 6.64447 13.8253 9.0065C13.8253 11.3685 10.9896 12.8528 8.73322 11.6718ZM9.42038 10.609C7.98116 9.85628 7.98116 7.96422 9.42038 7.2115C10.8596 6.45878 12.6683 7.40478 12.6683 8.91025C12.6683 10.4157 10.8596 11.3617 9.42038 10.609Z" fill="black"/>
</svg>
