<svg width="80" height="80" viewBox="0 0 80 80" fill="none" xmlns="http://www.w3.org/2000/svg">
<path d="M11.1733 33.9007C10.375 33.9007 9.60943 34.2178 9.04494 34.7823C8.48046 35.3468 8.16333 36.1124 8.16333 36.9107V50.4774H3.75667V41.0974H0V36.704H3.76C3.80783 34.7695 4.60984 32.9303 5.99487 31.5789C7.37989 30.2275 9.23824 29.471 11.1733 29.4707H15.5767V33.8774L11.1733 33.9007ZM35.5933 40.034C35.4167 40.0342 35.2447 40.0904 35.1021 40.1947C34.9595 40.2989 34.8537 40.4458 34.8 40.614L33.0267 46.7274C32.709 47.8078 32.0501 48.7563 31.1485 49.4309C30.2469 50.1056 29.1511 50.4703 28.025 50.4703C26.8989 50.4703 25.8031 50.1056 24.9015 49.4309C23.9999 48.7563 23.341 47.8078 23.0233 46.7274L21.25 40.6107C21.1934 40.4448 21.0863 40.3008 20.9437 40.1988C20.8012 40.0968 20.6303 40.042 20.455 40.042C20.2797 40.042 20.1088 40.0968 19.9662 40.1988C19.8237 40.3008 19.7166 40.4448 19.66 40.6107L17.8867 46.7274C17.5634 47.8119 16.8978 48.7626 15.9893 49.4374C15.0808 50.1121 13.9783 50.4747 12.8467 50.4707H11.62V46.0707H12.8633C13.0378 46.0705 13.2077 46.0148 13.3485 45.9118C13.4893 45.8087 13.5937 45.6636 13.6467 45.4974L15.42 39.3807C15.7421 38.3008 16.4042 37.3538 17.3077 36.6804C18.2113 36.007 19.3081 35.6432 20.435 35.6432C21.5619 35.6432 22.6587 36.007 23.5623 36.6804C24.4658 37.3538 25.1279 38.3008 25.45 39.3807L27.2367 45.504C27.2876 45.6726 27.3914 45.8203 27.5328 45.9253C27.6741 46.0303 27.8456 46.087 28.0217 46.087C28.1978 46.087 28.3692 46.0303 28.5106 45.9253C28.6519 45.8203 28.7558 45.6726 28.8067 45.504L30.58 39.3907C30.9021 38.3108 31.5642 37.3638 32.4677 36.6904C33.3713 36.017 34.4681 35.6532 35.595 35.6532C36.7219 35.6532 37.8187 36.017 38.7223 36.6904C39.6258 37.3638 40.2879 38.3108 40.61 39.3907L42.3833 45.504C42.4351 45.6715 42.5391 45.8181 42.6799 45.9224C42.8208 46.0267 42.9914 46.0834 43.1667 46.084H44.4133V50.4807H43.1833C42.0515 50.4852 40.9488 50.1229 40.0402 49.448C39.1316 48.7732 38.4661 47.8222 38.1433 46.7374L36.37 40.6207C36.3175 40.4544 36.2145 40.3085 36.0753 40.2034C35.9361 40.0983 35.7677 40.0391 35.5933 40.034ZM44.56 43.054C44.56 41.5872 44.995 40.1532 45.8099 38.9336C46.6249 37.7139 47.7832 36.7633 49.1384 36.2019C50.4936 35.6406 51.9849 35.4937 53.4236 35.7799C54.8623 36.0661 56.1838 36.7724 57.221 37.8097C58.2583 38.8469 58.9646 40.1684 59.2508 41.6071C59.537 43.0458 59.3901 44.5371 58.8288 45.8923C58.2674 47.2475 57.3168 48.4058 56.0971 49.2208C54.8775 50.0357 53.4435 50.4707 51.9767 50.4707C50.0096 50.4707 48.1232 49.6893 46.7323 48.2984C45.3414 46.9075 44.56 45.0211 44.56 43.054ZM54.9867 43.054C54.9867 42.4587 54.8101 41.8768 54.4794 41.3818C54.1486 40.8868 53.6785 40.501 53.1285 40.2732C52.5785 40.0453 51.9733 39.9857 51.3894 40.1019C50.8056 40.218 50.2692 40.5047 49.8483 40.9256C49.4273 41.3466 49.1406 41.8829 49.0245 42.4668C48.9084 43.0507 48.968 43.6559 49.1958 44.2059C49.4236 44.7559 49.8094 45.226 50.3044 45.5568C50.7994 45.8875 51.3813 46.064 51.9767 46.064C52.775 46.064 53.5406 45.7469 54.1051 45.1824C54.6695 44.6179 54.9867 43.8523 54.9867 43.054ZM70.5667 44.5874C70.651 44.4563 70.7256 44.3193 70.79 44.1774C71.0191 43.7312 71.3918 43.3751 71.848 43.1665C72.3041 42.958 72.8172 42.909 73.3046 43.0276C73.792 43.1461 74.2253 43.4253 74.5346 43.8202C74.844 44.215 75.0114 44.7025 75.01 45.204C75.0098 45.5047 74.9473 45.802 74.8267 46.0774L74.7633 46.2107C74.1445 47.4831 73.1809 48.5563 71.9824 49.3082C70.7838 50.0601 69.3982 50.4606 67.9833 50.464C66.0163 50.464 64.1298 49.6826 62.739 48.2917C61.3481 46.9009 60.5667 45.0144 60.5667 43.0474C60.5667 41.0803 61.3481 39.1939 62.739 37.803C64.1298 36.4121 66.0163 35.6307 67.9833 35.6307H68.31C69.4973 35.6806 70.6558 36.0119 71.69 36.5974V29.4707H76.0967V39.504C76.0794 40.1309 75.8247 40.7277 75.3841 41.1739C74.9435 41.6201 74.3499 41.8823 73.7233 41.9074C72.4221 41.945 71.1525 41.5024 70.1567 40.664C69.6336 40.2557 68.9902 40.0318 68.3267 40.0274H68C67.4736 40.0278 66.9566 40.1663 66.5004 40.4289C66.0442 40.6916 65.6649 41.0693 65.4004 41.5243C65.1358 41.9794 64.9951 42.4959 64.9925 43.0222C64.9898 43.5486 65.1253 44.0665 65.3853 44.5241C65.6453 44.9818 66.0207 45.3633 66.4742 45.6306C66.9277 45.8978 67.4434 46.0415 67.9697 46.0472C68.496 46.0529 69.0147 45.9205 69.4739 45.6632C69.9331 45.4059 70.3168 45.0326 70.5867 44.5807L70.5667 44.5874ZM14.0933 38.7474C14.0933 39.3697 13.8461 39.9666 13.406 40.4067C12.9659 40.8468 12.369 41.094 11.7467 41.094C11.1243 41.094 10.5274 40.8468 10.0873 40.4067C9.64724 39.9666 9.4 39.3697 9.4 38.7474C9.4 38.125 9.64724 37.5281 10.0873 37.088C10.5274 36.6479 11.1243 36.4007 11.7467 36.4007C12.369 36.4007 12.9659 36.6479 13.406 37.088C13.8461 37.5281 14.0933 38.125 14.0933 38.7474ZM75.42 48.1974C75.4114 48.652 75.5383 49.099 75.7847 49.4812C76.031 49.8635 76.3856 50.1637 76.8032 50.3437C77.2208 50.5237 77.6826 50.5753 78.1296 50.4919C78.5766 50.4085 78.9887 50.1938 79.3133 49.8754C79.6379 49.5569 79.8604 49.149 79.9523 48.7036C80.0442 48.2583 80.0015 47.7956 79.8295 47.3747C79.6575 46.9537 79.3641 46.5935 78.9866 46.3399C78.6092 46.0863 78.1647 45.9508 77.71 45.9507C77.4118 45.9467 77.1158 46.0018 76.839 46.1128C76.5622 46.2238 76.3101 46.3884 76.0972 46.5973C75.8844 46.8061 75.7149 47.055 75.5987 47.3296C75.4825 47.6043 75.4217 47.8992 75.42 48.1974ZM75.83 48.1974C75.845 47.832 75.967 47.479 76.1809 47.1824C76.3948 46.8857 76.6911 46.6584 77.0331 46.5287C77.375 46.399 77.7475 46.3726 78.1043 46.4528C78.4612 46.533 78.7866 46.7162 79.0402 46.9797C79.2937 47.2433 79.4643 47.5755 79.5307 47.9351C79.5971 48.2947 79.5564 48.666 79.4137 49.0027C79.2709 49.3394 79.0324 49.6267 78.7277 49.8291C78.4231 50.0314 78.0657 50.1397 77.7 50.1407C77.4466 50.1441 77.1952 50.0958 76.9612 49.9985C76.7271 49.9013 76.5155 49.7573 76.3391 49.5753C76.1628 49.3933 76.0254 49.1772 75.9356 48.9403C75.8458 48.7033 75.8053 48.4505 75.8167 48.1974H75.83ZM76.77 49.474H77.1833V48.334H77.64L78.36 49.4674H78.8167L78.0633 48.3007C78.1576 48.3037 78.2515 48.2869 78.3389 48.2515C78.4264 48.216 78.5054 48.1627 78.571 48.0949C78.6366 48.0271 78.6873 47.9463 78.7199 47.8578C78.7524 47.7692 78.7661 47.6749 78.76 47.5807C78.76 47.074 78.46 46.824 77.8433 46.824H76.82L76.77 49.474ZM77.1833 47.1807H77.71C77.99 47.1807 78.2933 47.2374 78.2933 47.584C78.2933 47.934 77.96 48.044 77.5933 48.044H77.1633L77.1833 47.1807Z" fill="black"/>
</svg>
