<svg width="80" height="80" viewBox="0 0 80 80" fill="none" xmlns="http://www.w3.org/2000/svg">
<path d="M36.5618 0.0560644C36.2647 0.0880799 35.4205 0.200134 34.6857 0.296181C21.8031 1.89696 10.2338 10.301 4.19902 22.4349C1.38487 28.1177 0.181035 33.0961 0.0246935 39.8034C-0.0691115 43.9494 0.0872302 46.1265 0.790768 49.5841C3.24533 61.8461 11.7034 72.8274 22.7412 78.078C26.3839 79.8068 28.2131 80.2871 29.1981 79.7588C30.0736 79.3106 30.1518 78.8464 30.1518 74.3162V70.2022L29.6515 70.2982C29.37 70.3462 28.1349 70.4423 26.9311 70.4903C22.8819 70.6824 20.1928 69.93 18.3479 68.0891C17.6444 67.3848 17.3005 66.8245 16.4093 64.9356C15.1742 62.2943 14.2362 60.9016 13.0792 60.0052C12.6258 59.653 12.0005 59.1568 11.6878 58.9167C10.9843 58.3564 10.5309 57.604 10.7497 57.3799C10.8435 57.2839 11.2188 57.1718 11.5784 57.1078C14.0173 56.7716 16.6282 58.4524 18.8639 61.8301C20.0521 63.639 21.2403 64.6795 22.7568 65.2878C24.3046 65.8961 27.322 65.752 29.4169 64.9516C30.0267 64.7115 30.3081 64.5194 30.3081 64.3273C30.3081 63.1907 31.2305 60.9657 32.1998 59.7971C32.919 58.9167 33.0128 58.9967 30.9022 58.7086C25.2583 57.9562 20.3022 55.2989 17.9258 51.7612C16.5188 49.6642 15.3931 46.6227 14.8772 43.5012C14.5645 41.5802 14.5176 37.0821 14.799 35.7374C15.3462 33.1441 16.2373 31.1112 17.6757 29.1742C18.6294 27.9096 18.6294 27.8936 18.4418 27.2533C17.6757 24.4999 17.6288 22.0347 18.3323 19.2654C18.8639 17.1524 19.0202 16.9283 19.927 16.9283C21.7249 16.9283 25.696 18.545 28.8698 20.562L29.9954 21.2824L31.3712 20.9462C36.8744 19.5856 43.1281 19.5856 48.6313 20.9462L50.0072 21.2824L51.1328 20.578C54.7912 18.2729 58.0588 16.9443 60.0287 16.9283C60.4352 16.9283 60.826 17.0243 60.9198 17.1204C61.17 17.4405 61.8579 19.9377 62.0298 21.2023C62.3269 23.2513 62.2018 24.9001 61.5764 27.1732L61.3732 27.9096L62.28 29.0942C64.7971 32.4558 65.7977 36.4097 65.3443 41.4042C64.7346 48.1274 62.5301 52.5616 58.4496 55.2669C55.6824 57.1078 52.79 58.1803 49.1473 58.6926C46.9741 59.0127 47.0992 58.9007 47.8653 59.8771C48.2249 60.3254 48.7252 61.1578 48.9597 61.702C49.757 63.5429 49.8508 64.5194 49.8508 71.6909C49.8508 78.8143 49.8664 78.9744 50.7107 79.6467C51.383 80.191 52.3366 80.111 54.244 79.3746C59.716 77.2456 64.1248 74.3482 68.221 70.1541C74.8811 63.3508 78.946 54.6906 79.8684 45.3261C80.1186 42.8609 79.9935 36.8259 79.6496 34.6169C78.7271 28.806 76.6165 23.2033 73.5366 18.449C67.0797 8.49216 57.4803 2.20111 45.9423 0.360212C44.3789 0.104088 37.875 -0.104013 36.5618 0.0560644Z" fill="black"/>
</svg>
