<svg width="24" height="24" viewBox="0 0 24 24" fill="none" xmlns="http://www.w3.org/2000/svg">
<mask id="mask0_267_18936" style="mask-type:luminance" maskUnits="userSpaceOnUse" x="2" y="2" width="20" height="20">
<path d="M19.5 3H4.5C3.67157 3 3 3.67157 3 4.5V19.5C3 20.3284 3.67157 21 4.5 21H19.5C20.3284 21 21 20.3284 21 19.5V4.5C21 3.67157 20.3284 3 19.5 3Z" fill="white" stroke="white" stroke-width="2" stroke-linecap="round" stroke-linejoin="round"/>
</mask>
<g mask="url(#mask0_267_18936)">
<path d="M25 25H1V1H25V25ZM5.59961 8V16H11.2002V14.4004H7.2002V12.7998H10.4004V11.2002H7.2002V9.59961H11.2002V8H5.59961ZM14.4004 8C13.9609 8.00053 13.5841 8.15764 13.2705 8.4707C12.9571 8.78366 12.7999 9.15982 12.7998 9.59961V11.2002C12.8004 11.6406 12.9576 12.0171 13.2705 12.3301C13.5836 12.6431 13.9604 12.7998 14.4004 12.7998H16.7998V14.4004H14.4004V13.5996H12.7998V14.4004C12.8004 14.8408 12.9575 15.2173 13.2705 15.5303C13.5836 15.8433 13.9604 16 14.4004 16H16.7998C17.2403 16.0005 17.6176 15.8439 17.9307 15.5303C18.2435 15.2168 18.4003 14.8401 18.4004 14.4004V12.7998C18.4009 12.3604 18.2442 11.9835 17.9307 11.6699C17.6171 11.3564 17.2398 11.2002 16.7998 11.2002H14.4004V9.59961H16.7998V10.4004H18.4004V9.59961C18.4008 9.16044 18.244 8.78415 17.9307 8.4707C17.6171 8.1571 17.2398 8 16.7998 8H14.4004Z" fill="black"/>
</g>
</svg>
