<svg width="24" height="24" viewBox="0 0 24 24" fill="none" xmlns="http://www.w3.org/2000/svg">
<mask id="mask0_267_18936" style="mask-type:luminance" maskUnits="userSpaceOnUse" x="2" y="2" width="20" height="20">
<path d="M19.5 3H4.5C3.67157 3 3 3.67157 3 4.5V19.5C3 20.3284 3.67157 21 4.5 21H19.5C20.3284 21 21 20.3284 21 19.5V4.5C21 3.67157 20.3284 3 19.5 3Z" fill="white" stroke="white" stroke-width="2" stroke-linecap="round" stroke-linejoin="round"/>
<path d="M10.5 8.5H6.5V15.5H10.25M6.5 12H10.25M13 9.5V15.5V12.25C13 11.6533 13.2371 11.081 13.659 10.659C14.081 10.2371 14.6533 10 15.25 10C15.8467 10 16.419 10.2371 16.841 10.659C17.2629 11.081 17.5 11.6533 17.5 12.25V15.5" stroke="black" stroke-width="2" stroke-linecap="round" stroke-linejoin="round"/>
</mask>
<g mask="url(#mask0_267_18936)">
<path d="M0 0H24V24H0V0Z" fill="black"/>
</g>
</svg>
