<svg width="80" height="80" viewBox="0 0 80 80" fill="none" xmlns="http://www.w3.org/2000/svg">
<path d="M13.2256 0.0288292C13.2158 0.0421938 13.102 0.0588995 12.9719 0.0622406C12.8418 0.0655818 12.7117 0.072264 12.6856 0.0789463C12.5197 0.112358 12.3896 0.132405 12.2465 0.145769C12.0286 0.169157 11.4626 0.269392 11.2056 0.329532C11.1341 0.346238 11.0235 0.369626 10.9617 0.38299C10.3697 0.509954 9.17594 0.917573 8.5872 1.19155C8.48962 1.23832 8.34975 1.29846 8.27819 1.32853C7.8781 1.49225 6.93156 2.04354 6.29403 2.47789C4.00736 4.05157 2.16957 6.34025 1.1287 8.91961C0.96606 9.32723 0.78716 9.81838 0.767644 9.90525C0.764391 9.92195 0.744874 9.98209 0.725358 10.0389C0.67982 10.1558 0.442371 11.0212 0.406591 11.1916C0.39358 11.2551 0.370811 11.3687 0.354547 11.4422C0.256965 11.8932 0.149625 12.6082 0.110593 13.0626C0.100835 13.1629 0.0878236 13.3065 0.0813182 13.38C0.0748127 13.4535 0.0683073 13.5337 0.0683073 13.5571C0.0650545 13.5838 0.0487909 13.5905 0.0260218 13.5772C0 13.5605 0.00325273 13.5772 0.0325273 13.6139C0.0618018 13.6507 0.0650545 13.6674 0.0422854 13.6507C0.00975818 13.6306 0 18.913 0 40.009C0 54.5195 0.0130109 66.3839 0.0260218 66.3739C0.0422854 66.3639 0.0552964 66.3739 0.0585491 66.3973C0.0585491 66.4207 0.0683073 66.5042 0.0780654 66.5877C0.0878236 66.6713 0.104087 66.8417 0.113845 66.972C0.133362 67.2393 0.149625 67.3763 0.198416 67.707C0.247207 68.0478 0.260218 68.118 0.374064 68.6593C0.380569 68.706 0.400085 68.7862 0.409844 68.843C0.419602 68.8965 0.474898 69.1003 0.526942 69.2941C0.582238 69.4879 0.627776 69.6683 0.634282 69.695C0.640787 69.7217 0.699336 69.9022 0.764391 70.0959C0.829445 70.2897 0.887994 70.4702 0.8945 70.5002C0.901005 70.5303 0.920522 70.5838 0.936785 70.6172C0.956302 70.6539 1.00835 70.7842 1.05714 70.9145C1.28808 71.5427 1.70768 72.388 2.19559 73.2166C2.25089 73.3068 2.42328 73.5707 2.58267 73.8013C4.07567 75.983 6.04031 77.6536 8.4083 78.7528C9.23774 79.1404 10.8771 79.6717 11.4496 79.7418C11.5114 79.7485 11.6285 79.7686 11.7098 79.7853C11.9765 79.8454 12.0514 79.8554 12.2465 79.8721C12.3539 79.8822 12.4872 79.9022 12.5393 79.9156C12.5946 79.9289 12.7409 79.9456 12.871 79.949C12.9979 79.9523 13.1443 79.9657 13.1963 79.979C13.3134 80.0091 66.746 80.0058 66.9411 79.9757C67.0224 79.9657 67.1851 79.9456 67.3054 79.9356C67.4258 79.9256 67.5559 79.9089 67.5982 79.9022C67.6405 79.8955 67.8063 79.8721 67.9657 79.8521C68.2585 79.812 68.3138 79.802 68.4699 79.7686C68.5154 79.7619 68.587 79.7485 68.6325 79.7385C68.6781 79.7318 68.9578 79.665 69.2506 79.5881C69.9564 79.4111 70.7728 79.1337 71.2575 78.9132C71.3356 78.8798 71.4039 78.8497 71.4136 78.8497C71.4852 78.8497 72.3699 78.3987 72.8448 78.1214C75.0762 76.815 76.914 74.9239 78.1793 72.6352C78.446 72.1541 78.8786 71.252 78.8786 71.1818C78.8786 71.1718 78.9079 71.1016 78.9404 71.0214C79.0901 70.6773 79.2885 70.0926 79.4609 69.4945C79.5454 69.2039 79.5324 69.2506 79.643 68.7595C79.7926 68.0913 79.8544 67.697 79.9585 66.7548C80.0138 66.267 80.0138 13.7442 79.9585 13.2464C79.8967 12.6517 79.8057 11.9768 79.7764 11.8899C79.7666 11.8632 79.7536 11.7897 79.7438 11.7262C79.7113 11.4923 79.4381 10.3797 79.3763 10.2227C79.3665 10.1959 79.3503 10.1425 79.3438 10.1091C79.3373 10.0723 79.3177 10.0255 79.2982 9.9988C79.2787 9.97541 79.269 9.95537 79.2787 9.95537C79.2885 9.95537 79.2527 9.83174 79.1974 9.67805C79.1453 9.5277 79.0738 9.33391 79.0445 9.2437C79.012 9.15683 78.9762 9.07665 78.9664 9.06328C78.9534 9.05326 78.9437 9.02319 78.9437 8.9998C78.9437 8.90291 78.4948 7.95736 78.1728 7.37266C77.9158 6.90824 77.3336 6.00948 77.0343 5.61522C76.5204 4.94365 75.5966 3.95467 75.0079 3.44682C74.1394 2.70174 73.1733 2.04688 72.217 1.55239C71.8625 1.36863 71.4396 1.16816 71.4136 1.16816C71.4039 1.16816 71.3356 1.13809 71.2575 1.10468C70.8216 0.900868 69.514 0.466519 69.1692 0.40972C69.1172 0.399696 69.0456 0.379649 69.0164 0.362944C68.9838 0.346238 68.9578 0.336214 68.9578 0.346238C68.9578 0.35292 68.9025 0.346238 68.8375 0.329532C68.7691 0.309485 68.6716 0.289438 68.6163 0.279415C68.5642 0.272733 68.4829 0.256027 68.4374 0.246003C68.304 0.215933 68.008 0.165816 67.8356 0.145769C67.7478 0.135746 67.6307 0.122381 67.5754 0.112358C67.5234 0.102334 67.3607 0.0889698 67.2176 0.0789463C67.0745 0.0689229 66.9053 0.0455349 66.8435 0.0288292C66.6972 -0.00792339 13.2484 -0.0112645 13.2256 0.0288292ZM57.2805 17.8238C57.4659 17.8371 57.7229 17.8806 57.9473 17.934C58.5719 18.0844 59.3005 18.5187 59.7168 18.9865C60.0388 19.3507 60.4422 20.0623 60.569 20.4967C60.5885 20.5702 60.6211 20.6604 60.6341 20.6971C60.6503 20.7339 60.6666 20.8074 60.6731 20.8642C60.6796 20.9177 60.6959 20.9878 60.7056 21.0145C60.7967 21.2484 60.7967 22.5348 60.7056 22.9524C60.6959 22.9992 60.6829 23.0794 60.6731 23.1362C60.6634 23.1896 60.6438 23.2631 60.6276 23.2932C60.6113 23.3233 60.5983 23.3801 60.5983 23.4168C60.5983 23.4569 60.5853 23.5137 60.569 23.5471C60.5528 23.5772 60.5267 23.6407 60.5105 23.6875C60.3706 24.055 60.0193 24.6664 59.8046 24.9203C59.4631 25.3146 58.9362 25.7256 58.5166 25.9194C58.2596 26.0363 57.9408 26.1499 57.7977 26.1766C57.7392 26.1866 57.6839 26.2033 57.6741 26.21C57.6611 26.2167 57.5863 26.2301 57.5082 26.2434C57.4269 26.2535 57.3033 26.2702 57.2317 26.2835C57.0919 26.3036 56.2852 26.3002 56.1453 26.2802C56.0998 26.2702 55.9827 26.2535 55.8851 26.2434C55.7875 26.2301 55.6737 26.2067 55.6314 26.19C55.5891 26.1733 55.5566 26.1666 55.5566 26.1766C55.5566 26.21 54.9581 25.9762 54.6816 25.8325C53.9042 25.4282 53.3903 24.9036 53.0227 24.1385C52.8568 23.791 52.7267 23.4269 52.6649 23.1362C52.6454 23.0426 52.6161 22.899 52.5966 22.8121C52.5543 22.6049 52.5543 21.4021 52.5998 21.1749C52.7787 20.2661 53.1235 19.5912 53.7025 19.0099C53.9855 18.7292 54.0928 18.6423 54.5092 18.3851C54.6979 18.2681 55.1728 18.0476 55.2801 18.0276C55.2996 18.0242 55.3289 18.0142 55.3451 18.0008C55.3809 17.9775 55.7322 17.8906 55.9144 17.8572C55.9762 17.8438 56.1388 17.8271 56.2722 17.8171C56.4055 17.8104 56.5194 17.797 56.5226 17.7937C56.5324 17.7837 57.0268 17.8037 57.2805 17.8238ZM37.0616 20.617C37.1364 20.6971 37.2762 21.0145 37.2762 21.1014C37.2762 21.1281 37.2893 21.1749 37.3088 21.2083C37.325 21.2384 37.3608 21.332 37.3868 21.4155C37.4129 21.499 37.4812 21.6928 37.5365 21.8498C37.595 22.0069 37.6471 22.1639 37.6568 22.2007C37.6633 22.2374 37.6828 22.2975 37.6991 22.3343C37.7121 22.3711 37.7414 22.4546 37.7642 22.5181C37.7869 22.5815 37.8162 22.6651 37.8325 22.7018C37.8455 22.7386 37.8813 22.8355 37.9073 22.919C37.9593 23.0794 38.1968 23.7743 38.3171 24.1051C38.3562 24.2154 38.3887 24.3189 38.3919 24.339C38.4017 24.3757 38.4667 24.5628 38.5155 24.6731C38.5285 24.7099 38.5643 24.8067 38.5904 24.8903C38.7237 25.2946 38.8311 25.5953 38.8473 25.6153C38.8603 25.6253 38.8701 25.6721 38.8701 25.7122C38.8701 25.7556 38.8863 25.7991 38.9026 25.8091C38.9221 25.8191 38.9351 25.8626 38.9351 25.906C38.9351 25.9461 38.9482 25.9929 38.9612 26.0129C38.9742 26.0296 39.0067 26.1031 39.0295 26.1766C39.0522 26.2501 39.0815 26.3403 39.0978 26.3771C39.114 26.4138 39.1791 26.6009 39.2441 26.7947C39.3092 26.9885 39.4296 27.3327 39.5076 27.5632C39.5889 27.7937 39.6572 27.9942 39.6637 28.0142C39.6703 28.031 39.6898 28.0911 39.7093 28.1412C39.7321 28.1947 39.7483 28.2548 39.7483 28.2782C39.7483 28.2982 39.7613 28.3317 39.7743 28.3517C39.7906 28.3684 39.8361 28.4954 39.8784 28.6324C39.9207 28.7693 39.9663 28.8963 39.976 28.9164C39.989 28.9331 40.015 29.0166 40.0411 29.1001C40.0638 29.1836 40.0964 29.2638 40.1126 29.2805C40.1256 29.3006 40.1386 29.344 40.1386 29.3841C40.1386 29.4242 40.1517 29.4676 40.1647 29.4877C40.1809 29.5044 40.2265 29.6314 40.2688 29.7683C40.311 29.9053 40.3566 30.0323 40.3663 30.0523C40.3793 30.0691 40.4054 30.1526 40.4314 30.2361C40.4542 30.3196 40.4867 30.3998 40.503 30.4165C40.516 30.4366 40.529 30.4767 40.529 30.5101C40.529 30.5435 40.542 30.597 40.5615 30.6304C40.5778 30.6604 40.6526 30.8676 40.7241 31.0881C40.799 31.3086 40.877 31.5325 40.8965 31.5893C40.9193 31.6427 40.9356 31.6962 40.9388 31.7062C40.9388 31.7162 40.9518 31.7496 40.9648 31.7797C40.9779 31.8098 40.9941 31.8532 40.9974 31.88C41.0039 31.9033 41.0169 31.9501 41.0299 31.9802C41.0429 32.0103 41.0592 32.0537 41.0624 32.0804C41.0689 32.1038 41.0884 32.1606 41.1047 32.2074C41.1242 32.2542 41.173 32.3811 41.212 32.4914C41.2511 32.6016 41.3096 32.7654 41.3454 32.8556C41.3779 32.9458 41.4072 33.046 41.4072 33.0794C41.4072 33.1128 41.4202 33.1462 41.4332 33.1563C41.4462 33.1663 41.4788 33.2498 41.5048 33.3434C41.5308 33.4369 41.5633 33.5205 41.5764 33.5305C41.5894 33.5405 41.6024 33.5773 41.6024 33.614C41.6024 33.6474 41.6154 33.7042 41.6316 33.7376C41.6869 33.8445 41.7975 34.1553 41.7975 34.1987C41.7975 34.2254 41.8105 34.2722 41.8301 34.3056C41.8463 34.3357 41.8821 34.4292 41.9081 34.5128C41.9342 34.5963 42.009 34.8135 42.074 34.9972C42.1391 35.181 42.2074 35.3681 42.2204 35.4149C42.2334 35.4617 42.3082 35.6721 42.383 35.8826C42.4546 36.0931 42.5229 36.2903 42.5294 36.317C42.5587 36.4206 42.6335 36.6177 42.653 36.6377C42.666 36.6511 42.6758 36.6945 42.6758 36.7346C42.6758 36.7714 42.6888 36.8182 42.7018 36.8349C42.7148 36.8549 42.7473 36.9284 42.7701 37.0019C42.7929 37.0754 42.8221 37.1656 42.8384 37.2024C42.8807 37.306 43.0368 37.7604 43.0563 37.8372C43.0628 37.874 43.0824 37.9341 43.0986 37.9709C43.1116 38.0076 43.1409 38.0911 43.1637 38.1546C43.1865 38.2181 43.2157 38.3016 43.232 38.3384C43.245 38.3751 43.2808 38.472 43.3068 38.5556C43.3328 38.6391 43.4499 38.9832 43.5703 39.324C43.6906 39.6648 43.7915 39.9555 43.7947 39.9755C43.798 40.009 43.863 40.1827 43.9118 40.3097C43.9281 40.3464 43.9704 40.4734 44.0094 40.5937C44.0484 40.7139 44.0907 40.8409 44.107 40.8776C44.1232 40.9144 44.1525 41.0046 44.1753 41.0781C44.1981 41.1516 44.2306 41.2251 44.2436 41.2418C44.2566 41.2619 44.2696 41.3087 44.2696 41.3488C44.2696 41.3922 44.2859 41.4356 44.3021 41.4456C44.3217 41.4557 44.3347 41.4991 44.3347 41.5425C44.3347 41.5826 44.3477 41.6294 44.3607 41.6461C44.377 41.6662 44.4095 41.7463 44.4322 41.8299C44.4583 41.9134 44.4843 41.9936 44.4973 42.0136C44.5071 42.0303 44.5363 42.1072 44.5591 42.1807C44.5819 42.2542 44.6111 42.3444 44.6274 42.3812C44.6567 42.4547 44.7933 42.8556 44.8063 42.9124C44.8128 42.9325 44.8258 42.9859 44.8421 43.0327C44.8551 43.0795 44.8616 43.1229 44.8584 43.1296C44.8518 43.1363 44.8616 43.153 44.8779 43.163C44.9006 43.1797 45.0177 43.4837 45.0633 43.6508C45.0698 43.6675 45.0893 43.7276 45.1088 43.7778C45.1316 43.8312 45.1478 43.8914 45.1478 43.9147C45.1478 43.9348 45.1609 43.9682 45.1739 43.9883C45.1901 44.005 45.2357 44.1319 45.278 44.2689C45.3202 44.4059 45.3658 44.5329 45.3755 44.5529C45.3885 44.5696 45.4146 44.6531 45.4406 44.7367C45.4634 44.8202 45.4959 44.9004 45.5122 44.9171C45.5252 44.9371 45.5382 44.9772 45.5382 45.0106C45.5382 45.0441 45.5512 45.0975 45.5707 45.1309C45.587 45.161 45.6325 45.2846 45.6683 45.4049C45.7073 45.5252 45.7496 45.6521 45.7659 45.6889C45.7789 45.7256 45.8082 45.8092 45.8309 45.8727C45.8537 45.9361 45.883 46.0197 45.896 46.0564C45.9122 46.0932 45.9318 46.1533 45.9383 46.1901C45.948 46.2268 46.0098 46.4072 46.0749 46.591C46.1399 46.7748 46.1985 46.9385 46.2017 46.9585C46.2082 46.9752 46.2212 47.0153 46.231 47.0421C46.2798 47.1757 46.3904 47.4965 46.3969 47.5265C46.4034 47.5432 46.4229 47.5967 46.4392 47.6435C46.4587 47.6902 46.5042 47.8239 46.5433 47.9442C46.5823 48.0644 46.6278 48.1914 46.6441 48.2282C46.6604 48.2649 46.6896 48.3551 46.7124 48.4286C46.7352 48.5021 46.7677 48.5756 46.7807 48.5923C46.7937 48.6124 46.8067 48.6525 46.8067 48.6859C46.8067 48.7193 46.8197 48.7728 46.8393 48.8062C46.8555 48.8363 46.9011 48.9599 46.9368 49.0802C46.9759 49.2004 47.0182 49.3274 47.0344 49.3642C47.132 49.6114 47.1971 49.7985 47.1971 49.8353C47.1971 49.862 47.2101 49.9088 47.2296 49.9422C47.2459 49.9722 47.2816 50.0658 47.3077 50.1493C47.3337 50.2329 47.3825 50.3732 47.4183 50.4667C47.454 50.5569 47.4866 50.6472 47.4898 50.6672C47.4931 50.6839 47.5126 50.7374 47.5288 50.7841C47.5549 50.851 47.6264 51.0715 47.6687 51.2185C47.672 51.2285 47.685 51.2586 47.6947 51.2853C47.7305 51.3655 47.9159 51.9001 47.9289 51.9535C47.9452 52.0204 48.072 52.3879 48.1078 52.4714C48.1241 52.5082 48.1599 52.6051 48.1859 52.6886C48.2802 52.9793 48.3583 53.1898 48.3778 53.2131C48.3908 53.2232 48.4006 53.2699 48.4006 53.31C48.4006 53.3535 48.4168 53.3969 48.4331 53.4069C48.4526 53.417 48.4656 53.4604 48.4656 53.5038C48.4656 53.5439 48.4786 53.5907 48.4917 53.6107C48.5047 53.6275 48.5372 53.701 48.56 53.7745C48.5827 53.848 48.612 53.9382 48.6283 53.9749C48.6836 54.1052 48.8299 54.5429 48.8462 54.6265C48.856 54.6732 48.8755 54.7267 48.8917 54.7467C48.908 54.7668 48.9243 54.8102 48.9308 54.847C48.9373 54.8804 48.96 54.9472 48.9763 54.994C49.0284 55.1209 49.1845 55.572 49.1975 55.6288C49.2235 55.7257 49.2983 55.9295 49.3211 55.9495C49.3341 55.9629 49.3439 56.0631 49.3439 56.1701C49.3439 56.5142 49.7537 56.4808 45.5349 56.4808C41.8366 56.4808 41.8333 56.4808 41.7422 56.4106C41.6382 56.3304 41.5113 56.1133 41.508 56.0063C41.5048 55.9663 41.4918 55.9228 41.4723 55.9128C41.456 55.9028 41.4397 55.8627 41.4397 55.8259C41.4397 55.7925 41.4267 55.7357 41.4072 55.7023C41.3909 55.6722 41.3324 55.5018 41.2771 55.3281C41.2218 55.1544 41.1633 54.984 41.147 54.9539C41.1275 54.9205 41.1145 54.8704 41.1145 54.8436C41.1145 54.8169 41.1015 54.7668 41.0819 54.7334C41.0527 54.6799 40.9453 54.3592 40.4607 52.8891C40.3371 52.5115 40.22 52.1774 40.2037 52.1473C40.1842 52.1139 40.1712 52.0638 40.1712 52.0371C40.1712 52.0103 40.1582 51.9602 40.1386 51.9268C40.1224 51.8967 40.0638 51.7263 40.0085 51.5526C39.9532 51.3789 39.8947 51.2085 39.8784 51.1784C39.8589 51.145 39.8459 51.0882 39.8459 51.0548C39.8459 51.018 39.8329 50.9779 39.8134 50.9679C39.7971 50.9579 39.7808 50.9178 39.7808 50.881C39.7808 50.8476 39.7678 50.7908 39.7483 50.7574C39.7321 50.7273 39.6345 50.4534 39.5369 50.1493C39.4361 49.8453 39.2669 49.3341 39.1596 49.0133C39.0522 48.6926 38.9514 48.4019 38.9351 48.3718C38.9156 48.3384 38.9026 48.2883 38.9026 48.2616C38.9026 48.2348 38.8896 48.1847 38.8733 48.1513C38.8571 48.1212 38.8343 48.0678 38.8245 48.0344C38.8083 47.9809 38.483 47.9776 32.5923 47.9776C26.7016 47.9776 26.3764 47.9809 26.3601 48.0344C26.3503 48.0678 26.3308 48.1246 26.3146 48.1613C26.2853 48.2382 26.1487 48.6792 26.1357 48.7293C26.1324 48.746 26.1194 48.7928 26.1064 48.8296C26.0056 49.1035 25.9925 49.147 26.0088 49.147C26.0218 49.147 26.0056 49.1837 25.9763 49.2305C25.947 49.2773 25.9307 49.314 25.9405 49.314C25.947 49.314 25.9405 49.3541 25.921 49.4042C25.9015 49.4577 25.8819 49.5212 25.8754 49.5479C25.8624 49.5947 25.8136 49.7551 25.7616 49.8987C25.7486 49.9355 25.703 50.0792 25.664 50.2161C25.625 50.3531 25.5794 50.4935 25.5632 50.5235C25.5469 50.5569 25.5339 50.6137 25.5339 50.6472C25.5339 50.6839 25.5209 50.724 25.5014 50.734C25.4851 50.744 25.4689 50.7908 25.4689 50.8343C25.4689 50.8777 25.4558 50.9245 25.4363 50.9345C25.4201 50.9445 25.4038 50.9846 25.4038 51.0214C25.4038 51.0548 25.3908 51.1116 25.3745 51.145C25.3583 51.1751 25.3127 51.3154 25.2737 51.4524C25.2347 51.5894 25.1891 51.733 25.1761 51.7698C25.1631 51.8065 25.1045 51.9936 25.046 52.1874C24.9907 52.3812 24.9322 52.5683 24.9159 52.6051C24.8899 52.6652 24.7565 53.0962 24.737 53.1731C24.7337 53.1898 24.7207 53.2299 24.711 53.2566C24.6784 53.3401 24.5483 53.7745 24.5483 53.7912C24.5516 53.8012 24.5386 53.8346 24.5191 53.868C24.5028 53.9014 24.48 53.9682 24.4735 54.0184C24.4638 54.0651 24.4475 54.1186 24.4345 54.1386C24.4247 54.1587 24.4117 54.1888 24.4052 54.2088C24.3955 54.2656 24.3239 54.4728 24.2946 54.5329C24.2784 54.5663 24.2653 54.6164 24.2653 54.6432C24.2653 54.6699 24.2523 54.72 24.2361 54.7534C24.2198 54.7835 24.1743 54.9238 24.1352 55.0608C24.0962 55.1978 24.0507 55.3415 24.0377 55.3782C24.0246 55.415 23.9791 55.5586 23.9401 55.6956C23.901 55.8326 23.8555 55.9763 23.8392 56.013C23.8262 56.0498 23.8067 56.1099 23.7969 56.1467C23.7677 56.2469 23.592 56.4273 23.4912 56.4541C23.4424 56.4708 21.9039 56.4808 20.0758 56.4808H16.745L16.667 56.3872C16.6149 56.3238 16.5889 56.2536 16.5889 56.1667C16.5889 56.0431 16.6897 55.6689 16.7515 55.5553C16.7711 55.5219 16.7841 55.4684 16.7841 55.435C16.7841 55.4016 16.7971 55.3615 16.8101 55.3415C16.8264 55.3248 16.8719 55.1978 16.9142 55.0608C16.9565 54.9238 17.002 54.7969 17.0183 54.7801C17.0313 54.7601 17.0443 54.72 17.0443 54.6866C17.0443 54.6532 17.0573 54.5997 17.0768 54.5663C17.0931 54.5362 17.1581 54.3525 17.2199 54.1587C17.2817 53.9649 17.3663 53.7177 17.4053 53.6074C17.5257 53.2633 17.89 52.1807 17.9746 51.9201C18.0201 51.7831 18.0689 51.6395 18.0852 51.6027C18.1014 51.566 18.16 51.3922 18.2153 51.2185C18.2706 51.0447 18.3291 50.8744 18.3454 50.8443C18.3649 50.8109 18.3779 50.7608 18.3779 50.734C18.3779 50.7073 18.3909 50.6572 18.4104 50.6238C18.4267 50.5937 18.4852 50.4233 18.5405 50.2496C18.5958 50.0758 18.6544 49.9021 18.6707 49.8653C18.6869 49.8286 18.7357 49.6849 18.7812 49.5479C18.8268 49.4109 18.9309 49.1002 19.0122 48.863C19.0968 48.6224 19.2139 48.2716 19.2757 48.0778C19.3375 47.884 19.4025 47.6969 19.4188 47.6602C19.435 47.6234 19.4773 47.4965 19.5164 47.3762C19.5521 47.2559 19.5977 47.1323 19.6139 47.1022C19.6335 47.0688 19.6465 47.012 19.6465 46.9786C19.6465 46.9418 19.6627 46.9017 19.679 46.8917C19.6985 46.8817 19.7115 46.8416 19.7115 46.8048C19.7115 46.7714 19.7245 46.7146 19.7441 46.6812C19.7603 46.6511 19.8059 46.5275 19.8416 46.4072C19.8807 46.287 19.923 46.16 19.9392 46.1232C19.9555 46.0865 20.0498 45.8159 20.1474 45.5218C20.5735 44.2422 20.6613 43.9816 20.6873 43.9181C20.7036 43.8813 20.7622 43.7076 20.8175 43.5339C20.8727 43.3601 20.9313 43.1897 20.9476 43.1597C20.9671 43.1262 20.9801 43.0694 20.9801 43.036C20.9801 42.9993 20.9964 42.9592 21.0126 42.9492C21.0321 42.9391 21.0451 42.8957 21.0451 42.8523C21.0451 42.8122 21.0582 42.7654 21.0712 42.7453C21.0874 42.7286 21.133 42.6017 21.1753 42.4647C21.2175 42.3277 21.2631 42.2007 21.2793 42.184C21.2923 42.164 21.3054 42.1239 21.3054 42.0905C21.3054 42.0571 21.3184 42.0036 21.3379 41.9702C21.3542 41.9401 21.4355 41.7096 21.52 41.4623C21.6014 41.2151 21.7477 40.7774 21.8453 40.4934C21.9429 40.2094 22.06 39.8619 22.1055 39.725C22.1478 39.588 22.1999 39.4476 22.2161 39.4176C22.2356 39.3842 22.2487 39.3274 22.2487 39.2939C22.2487 39.2572 22.2649 39.2171 22.2812 39.2071C22.3007 39.1971 22.3137 39.157 22.3137 39.1202C22.3137 39.0868 22.3267 39.03 22.3462 38.9966C22.3625 38.9665 22.421 38.7961 22.4763 38.6224C22.5316 38.4486 22.5902 38.2749 22.6065 38.2381C22.6227 38.2014 22.7138 37.9308 22.8114 37.6367C23.1757 36.5408 23.3253 36.0965 23.3546 36.033C23.3708 35.9962 23.4131 35.8693 23.4522 35.749C23.4879 35.6287 23.5335 35.5051 23.5497 35.475C23.5693 35.4416 23.5823 35.3848 23.5823 35.3514C23.5823 35.3146 23.5985 35.2746 23.6148 35.2645C23.6343 35.2545 23.6473 35.2111 23.6473 35.1676C23.6473 35.1275 23.6603 35.0808 23.6733 35.0641C23.6896 35.044 23.7351 34.9171 23.7774 34.7801C23.8197 34.6431 23.8653 34.5161 23.8815 34.4961C23.8945 34.4794 23.9075 34.4393 23.9075 34.4059C23.9075 34.3724 23.9206 34.319 23.9401 34.2856C23.9563 34.2555 24.0084 34.1152 24.0507 33.9782C24.1255 33.751 24.3011 33.2331 24.5906 32.3911C24.6459 32.2241 24.7272 31.9768 24.7728 31.8399C24.8183 31.7029 24.8671 31.5592 24.8834 31.5224C24.8964 31.4857 24.9191 31.4256 24.9289 31.3888C24.9614 31.2518 25.1989 30.5669 25.2184 30.5468C25.2314 30.5368 25.2412 30.4967 25.2412 30.4633C25.2412 30.4299 25.2542 30.3764 25.2737 30.343C25.29 30.313 25.368 30.0891 25.4493 29.8519C25.5274 29.6113 25.69 29.1302 25.8104 28.7827C25.9275 28.4319 26.0478 28.0811 26.0739 27.9975C26.0999 27.914 26.1357 27.8205 26.1519 27.7904C26.1714 27.757 26.1845 27.7069 26.1845 27.6801C26.1845 27.6534 26.1975 27.6033 26.217 27.5699C26.2332 27.5398 26.2918 27.3694 26.3471 27.1957C26.4024 27.0219 26.4609 26.8515 26.4772 26.8215C26.4967 26.788 26.5097 26.7379 26.5097 26.7112C26.5097 26.6845 26.5227 26.6344 26.5423 26.6009C26.5585 26.5709 26.6171 26.4005 26.6724 26.2267C26.7277 26.053 26.7862 25.8793 26.8025 25.8425C26.8187 25.8058 26.8773 25.632 26.9358 25.4583C26.9911 25.2845 27.0952 24.9738 27.1668 24.7733C27.3099 24.3557 27.3619 24.202 27.4205 23.9882C27.4433 23.9046 27.4855 23.7543 27.5181 23.6541C27.7067 23.0359 27.7132 23.0126 27.7783 22.4847C27.8108 22.2307 27.8629 21.5592 27.8921 21.0313C27.9116 20.6437 27.9442 20.5602 28.084 20.5401C28.1198 20.5334 30.1398 20.5301 32.5696 20.5334H36.9868L37.0616 20.617ZM60.1299 29.2939C60.2047 29.3273 60.247 29.3774 60.286 29.481C60.3348 29.608 60.3381 30.7807 60.3381 42.8489C60.3381 56.3806 60.3381 56.2168 60.2242 56.3973C60.1397 56.5309 60.1332 56.5309 56.6365 56.5309C52.8698 56.5276 53.0975 56.5409 52.9804 56.297C52.9251 56.1868 52.9219 55.4751 52.9219 42.8422C52.9219 33.2197 52.9316 29.481 52.9576 29.4242C53.0357 29.2438 52.9121 29.2505 56.6072 29.2505C59.3655 29.2505 60.0486 29.2605 60.1299 29.2939Z" fill="black"/>
<path d="M32.4133 26.8346C32.4003 26.8814 32.3743 27.0217 32.345 27.1788C32.3352 27.2322 32.3157 27.3224 32.2995 27.3759C32.28 27.4293 32.2669 27.5162 32.2669 27.5663C32.2669 27.6164 32.2539 27.6699 32.2344 27.6799C32.2181 27.69 32.2019 27.7367 32.2019 27.7802C32.2019 27.8236 32.1791 27.9472 32.1531 28.0541C32.1238 28.1611 32.088 28.3147 32.0685 28.3983C32.0523 28.4818 32.023 28.6088 32.0035 28.6823C31.9222 29.0231 31.9156 29.0498 31.8148 29.4073C31.7985 29.4674 31.753 29.6312 31.7205 29.7681C31.6847 29.9051 31.6294 30.1023 31.6001 30.2025C31.5676 30.3027 31.5448 30.3896 31.5481 30.3963C31.5513 30.3996 31.5286 30.4497 31.5026 30.5032C31.4733 30.56 31.4603 30.6034 31.47 30.6034C31.4798 30.6034 31.4668 30.6569 31.4407 30.7204C31.4147 30.7839 31.3985 30.8373 31.405 30.8373C31.4115 30.8373 31.3724 30.9676 31.3204 31.128C31.2651 31.2917 31.2163 31.4487 31.2098 31.4822C31.1968 31.5356 31.148 31.7027 31.1025 31.8397C31.0927 31.8664 31.0797 31.9265 31.0732 31.9733C31.0667 32.0201 31.0472 32.0702 31.0277 32.0902C31.0114 32.1069 30.9984 32.147 30.9984 32.1805C30.9984 32.2139 30.9854 32.2673 30.9691 32.3007C30.9431 32.3542 30.9203 32.4244 30.8357 32.7418C30.8162 32.8253 30.7837 32.9188 30.7674 32.9489C30.7512 32.9823 30.7382 33.0391 30.7382 33.0725C30.7382 33.1093 30.7251 33.1494 30.7056 33.1594C30.6894 33.1694 30.6731 33.2162 30.6731 33.263C30.6731 33.3064 30.6601 33.3699 30.6438 33.4033C30.6276 33.4334 30.582 33.5737 30.543 33.7107C30.504 33.8477 30.4617 33.9914 30.4454 34.0281C30.4324 34.0649 30.3869 34.2085 30.3478 34.3455C30.3088 34.4825 30.247 34.683 30.2145 34.7865C30.1787 34.8901 30.1429 35.0037 30.1364 35.0371C30.1266 35.0872 29.899 35.839 29.8404 36.0161C29.8306 36.0428 29.8274 36.0662 29.8306 36.0662C29.8339 36.0662 29.8111 36.123 29.7819 36.1965C29.7526 36.2667 29.7298 36.3569 29.7298 36.397C29.7298 36.4371 29.7136 36.4872 29.6908 36.5106C29.668 36.534 29.6615 36.5507 29.6745 36.5507C29.6875 36.5507 29.6745 36.6041 29.6485 36.6709C29.6225 36.7378 29.5997 36.828 29.5997 36.8714C29.5997 36.9115 29.5867 36.9583 29.5672 36.9683C29.5509 36.9783 29.5347 37.0318 29.5347 37.0853C29.5347 37.1387 29.5216 37.1922 29.5021 37.2022C29.4859 37.2122 29.4696 37.2657 29.4696 37.3191C29.4696 37.3726 29.4566 37.426 29.4371 37.4361C29.4208 37.4461 29.4045 37.4929 29.4045 37.5396C29.4045 37.5831 29.3915 37.6466 29.3753 37.68C29.359 37.71 29.3265 37.8036 29.307 37.8871C29.2842 37.9707 29.2549 38.0675 29.2419 38.1043C29.2289 38.1411 29.1996 38.2379 29.1769 38.3215C29.0858 38.6589 29.0695 38.709 29.0435 38.7625C29.0272 38.7959 29.0142 38.846 29.0142 38.8728C29.0142 38.8995 29.0012 38.9496 28.9849 38.983C28.9687 39.0131 28.8841 39.2637 28.7995 39.541C28.715 39.815 28.6304 40.0622 28.6141 40.0823C28.5979 40.1056 28.5946 40.1257 28.6044 40.1257C28.6174 40.1257 28.6109 40.1558 28.5914 40.1959C28.5718 40.2326 28.5491 40.2894 28.5426 40.3195C28.5263 40.3896 28.4027 40.7538 28.3604 40.844C28.3116 40.9576 28.2986 41.0946 28.3409 41.098C28.3637 41.1013 30.2763 41.1046 32.5955 41.108L36.8143 41.1113L36.8012 41.0278C36.7752 40.8741 36.3166 39.3706 36.2678 39.2837C36.2483 39.2503 36.2353 39.1935 36.2353 39.1601C36.2353 39.1233 36.2223 39.0833 36.2027 39.0732C36.1865 39.0632 36.1702 39.0164 36.1702 38.973C36.1702 38.9296 36.1572 38.8828 36.1377 38.8728C36.1214 38.8627 36.1052 38.8226 36.1052 38.7859C36.1052 38.7525 36.0921 38.6957 36.0759 38.6623C36.0596 38.6322 36.0141 38.4919 35.975 38.3549C35.936 38.2179 35.8905 38.0776 35.8742 38.0475C35.8579 38.0141 35.8449 37.964 35.8449 37.9372C35.8449 37.9105 35.8319 37.8604 35.8157 37.827C35.7994 37.7969 35.7376 37.6132 35.6823 37.4194C35.6238 37.2256 35.5489 36.985 35.5197 36.8848C35.4871 36.7845 35.4091 36.5206 35.3408 36.3001C35.2757 36.0796 35.1651 35.712 35.0936 35.4815C35.0253 35.251 34.9342 34.9569 34.8984 34.83C34.8594 34.6997 34.8171 34.566 34.8041 34.5293C34.7911 34.4925 34.7618 34.3956 34.739 34.3121C34.7195 34.2286 34.687 34.135 34.6707 34.105C34.6544 34.0715 34.6414 34.0214 34.6414 33.9947C34.6414 33.968 34.6284 33.9178 34.6122 33.8844C34.5959 33.8544 34.5634 33.7608 34.5438 33.6773C34.5211 33.5938 34.4918 33.4969 34.4788 33.4601C34.4658 33.4234 34.4202 33.2797 34.3812 33.1427C34.3422 33.0057 34.2966 32.862 34.2836 32.8253C34.2706 32.7885 34.2121 32.6014 34.1535 32.4076C34.095 32.2139 33.9844 31.8463 33.9031 31.5891C33.8217 31.3318 33.7437 31.0745 33.7274 31.0211C33.7112 30.9643 33.6721 30.8306 33.6396 30.7204C33.6038 30.6101 33.5583 30.4531 33.5355 30.3696C33.5127 30.286 33.4835 30.1824 33.4704 30.1357C33.4574 30.0889 33.4282 29.9853 33.4054 29.9018C33.3208 29.5911 33.2981 29.5142 33.272 29.4407C33.2558 29.3973 33.2428 29.3271 33.2428 29.2837C33.2428 29.2402 33.2297 29.1935 33.2102 29.1834C33.194 29.1734 33.1777 29.12 33.1777 29.0665C33.1777 29.013 33.1647 28.9596 33.1452 28.9496C33.1289 28.9395 33.1126 28.8861 33.1126 28.8326C33.1126 28.7792 33.0996 28.7257 33.0801 28.7157C33.0639 28.7057 33.0476 28.6589 33.0476 28.6155C33.0476 28.572 33.0346 28.5019 33.0183 28.4584C33.0021 28.415 32.9728 28.3147 32.95 28.2312C32.9272 28.1477 32.898 28.0441 32.885 27.9973C32.8719 27.9506 32.8427 27.847 32.8199 27.7635C32.7971 27.6799 32.7679 27.5764 32.7548 27.5296C32.7418 27.4828 32.7126 27.3859 32.693 27.3124C32.6735 27.2389 32.6345 27.0919 32.6052 26.985C32.5662 26.8346 32.5402 26.7945 32.4914 26.7945C32.4556 26.7945 32.4231 26.8146 32.4133 26.8346Z" fill="black"/>
</svg>
