<?xml version="1.0" standalone="no"?>
<!DOCTYPE svg PUBLIC "-//W3C//DTD SVG 20010904//EN"
 "http://www.w3.org/TR/2001/REC-SVG-20010904/DTD/svg10.dtd">
<svg version="1.0" xmlns="http://www.w3.org/2000/svg"
 width="2048.000000pt" height="2048.000000pt" viewBox="0 0 2048.000000 2048.000000"
 preserveAspectRatio="xMidYMid meet">

<g transform="translate(0.000000,2048.000000) scale(0.100000,-0.100000)"
fill="#000000" stroke="none">
<path d="M2 19028 c1 -799 3 -1433 5 -1408 30 400 133 779 313 1145 213 435
517 803 905 1094 174 131 298 207 490 302 331 162 681 265 1020 298 61 6 124
13 140 15 17 1 -624 4 -1422 5 l-1453 1 2 -1452z"/>
<path d="M17605 20474 c17 -2 80 -9 140 -15 819 -81 1607 -529 2114 -1204 131
-174 207 -298 301 -490 180 -366 283 -745 313 -1145 2 -25 4 609 5 1408 l2
1452 -1452 -1 c-799 -1 -1439 -4 -1423 -5z"/>
<path d="M9015 16783 c-1442 -16 -2636 -44 -3883 -88 l-413 -15 -57 -39 c-194
-132 -432 -340 -727 -635 -577 -578 -1068 -1205 -1155 -1474 -21 -68 -22 -77
-17 -493 4 -388 6 -432 26 -521 68 -307 206 -555 440 -789 390 -389 841 -526
1332 -404 250 62 459 171 650 338 256 224 435 541 485 858 23 144 25 146 39
44 61 -447 356 -870 763 -1092 447 -244 977 -255 1397 -28 269 145 492 379
633 661 66 131 142 398 142 497 0 20 5 39 10 42 6 4 10 -8 10 -30 0 -20 7 -71
16 -113 59 -287 196 -535 414 -752 401 -400 963 -557 1506 -420 192 48 389
142 567 270 90 65 263 241 334 340 84 118 156 256 197 380 39 117 66 239 66
297 0 28 3 34 10 23 5 -8 10 -28 10 -43 0 -16 9 -75 21 -130 57 -284 187 -531
388 -739 159 -166 317 -274 508 -348 700 -274 1522 46 1871 727 80 157 131
319 151 483 9 76 13 69 34 -66 32 -203 122 -420 248 -599 79 -111 247 -281
354 -357 174 -123 408 -222 621 -264 129 -25 391 -26 499 0 272 63 513 197
723 401 218 210 358 437 437 710 46 158 55 265 55 680 0 374 -1 381 -24 447
-152 432 -1212 1625 -1837 2070 l-92 66 -116 6 c-64 3 -330 13 -591 21 -261 8
-612 19 -780 25 -1294 43 -3892 69 -5265 53z"/>
<path d="M5538 12457 c-75 -96 -160 -197 -189 -224 -220 -208 -521 -365 -827
-433 -48 -11 -148 -25 -222 -31 -126 -11 -140 -10 -215 9 -43 12 -81 20 -82
18 -2 -2 -15 -259 -28 -572 -14 -313 -31 -724 -40 -914 -21 -476 -26 -3455 -7
-3850 66 -1350 227 -2161 516 -2594 77 -115 110 -144 185 -162 475 -110 1383
-222 2311 -283 168 -11 341 -23 385 -26 167 -11 987 -45 1380 -57 543 -16
2533 -16 3065 0 804 25 1697 70 2125 107 900 79 1422 147 1883 244 119 25 137
32 168 62 101 98 224 333 308 589 158 482 249 1132 298 2125 19 390 14 3371
-7 3845 -9 190 -26 601 -40 914 -13 313 -26 570 -28 572 -1 2 -36 -6 -77 -16
-91 -24 -144 -25 -297 -5 -249 33 -474 112 -686 241 -200 122 -295 211 -474
441 -75 95 -139 173 -143 173 -4 0 -67 -76 -139 -169 -147 -188 -233 -276
-371 -374 -174 -125 -435 -239 -640 -281 -216 -44 -470 -46 -674 -6 -448 88
-853 353 -1098 719 -39 58 -74 107 -78 109 -4 2 -20 -19 -35 -45 -220 -378
-653 -687 -1096 -781 -229 -49 -570 -55 -799 -12 -348 64 -676 240 -924 495
-74 76 -185 219 -226 290 -17 30 -35 55 -40 55 -5 0 -61 -69 -126 -152 -64
-84 -145 -182 -178 -216 -238 -249 -606 -428 -976 -478 -466 -62 -948 76
-1316 377 -109 89 -248 242 -326 358 -39 58 -74 107 -78 109 -4 1 -68 -75
-142 -171z m2390 -1442 c333 -52 603 -196 892 -474 l105 -101 165 10 c824 53
1015 63 1150 63 134 0 458 -18 1150 -63 l165 -11 95 92 c179 172 322 276 495
359 229 110 450 150 830 150 333 0 526 -51 770 -202 414 -257 779 -782 1046
-1505 48 -129 752 -2578 823 -2858 94 -379 121 -561 120 -830 0 -193 -3 -218
-26 -306 -84 -311 -273 -460 -654 -515 -175 -25 -646 -26 -804 -1 -639 100
-1146 432 -1440 943 -144 251 -217 484 -242 774 -6 74 -12 136 -13 138 -1 1
-58 -6 -126 -17 -510 -82 -1115 -136 -1784 -162 -792 -30 -1933 44 -2731 176
l-31 5 -6 -142 c-17 -442 -197 -845 -518 -1166 -296 -296 -666 -475 -1129
-549 -159 -25 -629 -25 -804 1 -379 55 -571 205 -653 514 -25 90 -27 113 -27
307 -1 269 25 450 120 830 70 278 776 2729 823 2858 357 966 882 1564 1476
1681 127 24 127 24 400 21 177 -2 293 -9 363 -20z"/>
<path d="M9767 9138 c-250 -249 -510 -514 -578 -588 -278 -304 -518 -604 -498
-624 3 -3 193 4 424 14 231 11 426 20 433 20 9 0 12 -83 12 -380 l0 -380 680
0 680 0 0 380 c0 297 3 380 13 380 6 0 201 -9 432 -20 231 -10 421 -17 424
-14 20 20 -220 320 -498 624 -201 219 -1031 1040 -1051 1040 -11 0 -205 -185
-473 -452z"/>
<path d="M2 1453 l-2 -1453 1453 2 c798 1 1432 3 1407 5 -288 21 -607 92 -878
194 -142 53 -403 182 -527 260 -839 525 -1375 1412 -1448 2399 -2 25 -4 -609
-5 -1407z"/>
<path d="M20470 2852 c0 -129 -57 -448 -115 -644 -348 -1176 -1356 -2033
-2568 -2183 -67 -8 -142 -16 -167 -18 -25 -2 609 -4 1408 -5 l1452 -2 0 1450
c0 798 -2 1450 -5 1450 -3 0 -5 -22 -5 -48z"/>
</g>
</svg>
