<svg width="80" height="80" viewBox="0 0 80 80" fill="none" xmlns="http://www.w3.org/2000/svg">
<path d="M11.7447 8.54688L16.8872 66.2294L39.9647 72.6369L63.1047 66.2219L68.2522 8.54938H11.7422L11.7447 8.54688ZM33.0647 23.4844L32.0422 34.5869L56.2197 34.5894L56.0472 36.4894L54.3847 55.1144L54.2797 56.3094L39.7697 60.3319L25.2797 56.3094L24.2897 45.2019H31.3897L31.8947 50.8444L39.7797 52.9694L47.6697 50.8394L48.4897 41.6644L24.3122 41.6619L24.4847 39.7619L26.1472 21.1369L26.6697 15.9219H54.8872L55.2147 19.9169L56.2222 31.0494H49.1197L48.4647 23.7444L41.2422 23.3094H39.9547V23.2994L33.0672 23.4844H33.0647Z" fill="black"/>
</svg>
