<svg width="80" height="80" viewBox="0 0 80 80" fill="none" xmlns="http://www.w3.org/2000/svg">
<path fill-rule="evenodd" clip-rule="evenodd" d="M6.25 10C6.25 7.92895 7.92895 6.25 10 6.25H70C71.5165 6.25 72.884 7.16365 73.4645 8.56495C74.045 9.9662 73.724 11.5791 72.6515 12.6516L45.3033 40L72.6515 67.3485C73.724 68.421 74.045 70.034 73.4645 71.435C72.884 72.8365 71.5165 73.75 70 73.75H10C7.92895 73.75 6.25 72.071 6.25 70V10ZM13.75 13.75V66.25H60.9465L37.3483 42.6516C35.8839 41.1872 35.8839 38.8128 37.3483 37.3483L60.9465 13.75H13.75Z" fill="black"/>
</svg>
