<svg width="80" height="80" viewBox="0 0 80 80" fill="none" xmlns="http://www.w3.org/2000/svg">
<path d="M11.7175 0.212135C5.84508 1.30292 1.30021 6.03499 0.269412 12.0985C-0.0898042 14.1677 -0.0898042 65.7874 0.269412 67.8567C1.12841 72.9577 4.62687 77.3208 9.23421 79.0372C11.9049 80.0478 10.593 79.9996 40.0175 79.9996C69.5201 79.9996 68.0989 80.0478 70.8789 79.0211C74.4555 77.6897 77.7353 74.2891 79.0628 70.5515C80.0311 67.8246 79.9999 69.0437 79.9999 39.9776C79.9999 10.9114 80.0311 12.1305 79.0628 9.40358C77.8133 5.89062 74.8147 2.61827 71.5349 1.20667C70.957 0.950017 69.9262 0.581076 69.2546 0.388585L68.052 0.0356846L40.4861 0.00360278C17.4962 -0.0124381 12.717 0.0196437 11.7175 0.212135ZM33.3017 20.7926C38.237 21.8834 41.5012 24.7387 42.7038 29.0697C43.1724 30.7861 43.2192 34.3953 42.7663 36.1277C41.798 39.9455 39.1741 42.7526 35.3633 44.068C33.3173 44.7738 31.3495 45.0304 28.0384 45.0304H25.1803V50.725V56.4195H21.6662H18.1522L18.1834 38.4858L18.2302 20.5681L21.7443 20.4718C27.6323 20.3114 31.5837 20.4237 33.3017 20.7926ZM61.5549 29.1499C62.1015 29.2462 63.023 29.4868 63.5852 29.6793L64.616 30.0322L64.6629 33.2725C64.7098 37.01 64.7878 36.8496 63.2573 36.1277C61.508 35.3097 60.1336 35.037 57.5098 35.0209C55.3857 35.0049 55.0265 35.037 54.5892 35.3097C53.699 35.8711 53.5116 36.8817 54.1363 37.7158C54.6048 38.3574 55.5107 38.8547 58.2126 39.9776C63.4915 42.1752 65.5375 44.1001 65.9904 47.3564C66.4746 50.7891 64.8503 54.0936 61.9297 55.6656C59.0248 57.2215 54.9484 57.6065 50.6691 56.7564C49.1853 56.4516 47.4674 55.8901 47.0925 55.5693C46.827 55.3768 46.7958 48.8803 47.0457 48.8803C47.1394 48.8803 47.7172 49.1369 48.3263 49.4577C50.0912 50.3721 52.6838 50.9816 54.8547 51.0137C57.6972 51.0618 58.9154 50.5164 58.9154 49.185C58.9154 48.0301 58.0252 47.3564 54.8547 46.0731C51.6062 44.7738 49.5133 43.3943 48.3888 41.8223C47.1238 40.0578 46.6396 37.9404 47.03 35.855C47.7329 32.2138 50.6222 29.6953 54.9328 28.9895C56.0573 28.8131 60.1493 28.9093 61.5549 29.1499Z" fill="black"/>
<path d="M25.1807 32.8242V38.5669L25.6648 38.6791C25.9303 38.7273 26.7425 38.7754 27.4609 38.7754C31.5841 38.7754 34.411 37.6044 35.4262 35.4549C35.8478 34.6048 35.8791 34.3802 35.8791 32.7601C35.8635 30.7068 35.5979 29.9048 34.5828 28.8621C33.2396 27.4826 31.709 27.0655 27.9607 27.0655H25.1807V32.8242Z" fill="black"/>
</svg>
