<svg width="80" height="80" viewBox="0 0 80 80" fill="none" xmlns="http://www.w3.org/2000/svg">
<path d="M6.4375 0.302098C4.92188 0.708401 3.73438 1.39599 2.5625 2.55239C1.39062 3.74005 0.703125 4.91207 0.3125 6.49041C0 7.67806 0 8.28752 0 39.9948C0 71.702 0 72.3115 0.3125 73.4992C0.703125 75.0775 1.39062 76.2495 2.5625 77.4372C3.75 78.6092 4.92188 79.2968 6.5 79.6875C7.6875 80 8.29688 80 40 80C71.7031 80 72.3125 80 73.5 79.6875C75.0781 79.2968 76.25 78.6092 77.4375 77.4372C78.6094 76.2495 79.2969 75.0775 79.6875 73.4992C80 72.3115 80 71.702 80 39.9948C80 8.28752 80 7.67806 79.6875 6.49041C79.2812 4.88082 78.6094 3.72442 77.3594 2.48988C76.125 1.2866 75.1406 0.708401 73.5 0.302098C72.3125 -0.0104427 71.6719 -0.0104427 39.9375 0.00518431C8.53125 0.00518431 7.54688 0.0208113 6.4375 0.302098ZM37.7812 15.2415L37.7344 20.6485L32.8906 23.4457C29.5938 25.3522 28.0312 26.3367 28 26.5399C27.9688 26.7743 29.125 27.4931 33.8438 30.2279C37.0781 32.1031 39.8594 33.6658 40.0156 33.6971C40.1875 33.744 42.4062 32.5563 46.0469 30.4467C49.2031 28.6339 51.9219 27.0243 52.0625 26.8993C52.25 26.743 52.2969 26.5868 52.2031 26.4149C52.125 26.2742 49.875 24.8991 47.2031 23.352L42.3438 20.5391V15.179C42.3438 10.7097 42.375 9.81897 42.5625 9.86585C42.6719 9.8971 48.1562 13.0381 54.75 16.8668L66.7188 23.8208V37.932C66.7188 45.6986 66.6719 52.012 66.6094 51.9807C66.5312 51.9338 64.6875 50.9025 62.5 49.6835C60.3125 48.4646 58.25 47.2926 57.9375 47.0895L57.3438 46.7144L57.3125 40.9637C57.2656 35.291 57.2656 35.2285 56.9531 35.2442C56.5938 35.2442 45.7812 41.4012 45.1875 41.9325L44.8438 42.2451L44.875 49.2772C44.9219 56.2625 44.9219 56.325 45.2344 56.3094C45.4219 56.3094 47.7188 55.0592 50.3594 53.5278L55.1562 50.7462L59.7031 53.3872C62.2031 54.8405 64.25 56.0906 64.25 56.1688C64.2656 56.2469 58.8125 59.4661 52.1719 63.2947L40.0781 70.28L39.2969 69.8424C32.75 66.1076 15.9531 56.2938 15.9219 56.1688C15.9062 56.0906 17.9375 54.8405 20.4375 53.3872L24.9844 50.7462L29.7656 53.5122C32.3906 55.0436 34.6562 56.2938 34.8125 56.3094C35.0625 56.325 35.0781 55.8093 35.125 49.1991C35.1562 42.7295 35.1406 42.0419 34.9062 41.8544C34.7656 41.7294 32.0625 40.151 28.9219 38.3227C23.7656 35.3379 23.1719 35.0254 22.8906 35.2129C22.5938 35.4161 22.5781 35.6348 22.5 41.1043L22.4219 46.7925L18.0469 49.3397C15.6406 50.7462 13.5781 51.9338 13.4844 51.9807C13.3281 52.0432 13.2812 49.1835 13.2812 37.9476V23.8208L25.4375 16.8355C32.1094 12.9913 37.625 9.85022 37.7031 9.83459C37.7656 9.83459 37.7969 12.2724 37.7812 15.2415Z" fill="black"/>
</svg>
