<svg width="80" height="80" viewBox="0 0 80 80" fill="none" xmlns="http://www.w3.org/2000/svg">
<path d="M23.333 33.334V40.0007C23.333 42.223 24.6663 46.6673 29.9997 46.6673C35.333 46.6673 36.6663 42.223 36.6663 40.0007V33.334M46.6663 33.334L51.6663 40.0007M51.6663 40.0007L56.6663 46.6673M51.6663 40.0007L56.6663 33.334M51.6663 40.0007L46.6663 46.6673" stroke="black" stroke-width="7" stroke-linecap="round" stroke-linejoin="round"/>
<path d="M40.0003 73.3327C58.4098 73.3327 73.3337 58.4088 73.3337 39.9993C73.3337 21.5899 58.4098 6.66602 40.0003 6.66602C21.5908 6.66602 6.66699 21.5899 6.66699 39.9993C6.66699 58.4088 21.5908 73.3327 40.0003 73.3327Z" stroke="black" stroke-width="7" stroke-linecap="round" stroke-linejoin="round"/>
</svg>
