<?xml version="1.0" standalone="no"?>
<!DOCTYPE svg PUBLIC "-//W3C//DTD SVG 20010904//EN"
 "http://www.w3.org/TR/2001/REC-SVG-20010904/DTD/svg10.dtd">
<svg version="1.0" xmlns="http://www.w3.org/2000/svg"
 width="1800.000000pt" height="1020.000000pt" viewBox="0 0 1800.000000 1020.000000"
 preserveAspectRatio="xMidYMid meet">

<g transform="translate(0.000000,1020.000000) scale(0.100000,-0.100000)"
fill="#000000" stroke="none">
<path d="M8765 10029 c-38 -4 -131 -13 -205 -19 -130 -11 -328 -38 -455 -61
-66 -12 -375 -86 -415 -99 -14 -4 -45 -13 -70 -20 -25 -7 -91 -28 -148 -47
-57 -19 -109 -36 -115 -37 -16 -4 -44 -14 -92 -36 -22 -9 -69 -28 -105 -41
-36 -13 -100 -40 -143 -61 -43 -21 -80 -38 -83 -38 -7 0 -247 -120 -297 -149
-18 -10 -56 -32 -85 -50 -29 -17 -55 -31 -57 -31 -2 0 -71 -43 -152 -96 -454
-296 -854 -659 -1189 -1079 -292 -366 -553 -816 -721 -1245 -25 -63 -48 -124
-53 -135 -60 -148 -172 -560 -210 -775 -6 -36 -13 -74 -16 -85 -14 -64 -45
-333 -55 -470 -6 -88 -15 -161 -20 -163 -12 -5 -12 -365 0 -377 5 -6 14 -82
20 -170 10 -137 41 -406 55 -470 3 -11 10 -49 16 -85 38 -215 150 -627 210
-775 5 -11 28 -72 53 -135 56 -142 98 -235 189 -415 388 -769 981 -1426 1721
-1909 81 -53 150 -96 152 -96 2 0 28 -14 57 -31 29 -18 67 -40 85 -50 50 -29
290 -149 297 -149 3 0 42 -18 86 -39 45 -22 91 -43 103 -46 12 -4 58 -22 102
-40 96 -39 117 -47 131 -50 6 -2 53 -17 105 -35 52 -18 108 -36 124 -41 17 -4
46 -12 65 -18 121 -33 364 -94 410 -101 280 -47 426 -66 570 -75 52 -4 124
-11 160 -16 84 -11 366 -11 450 0 36 5 110 12 165 16 145 9 326 33 570 75 45
8 255 59 330 80 17 4 57 16 90 24 33 9 107 33 165 52 58 20 112 37 120 39 16
3 198 75 265 105 22 10 63 28 90 40 326 143 711 375 1015 612 535 417 1004
975 1318 1568 71 135 82 157 122 245 191 417 347 935 399 1325 27 198 41 328
47 438 4 67 11 125 15 128 12 7 12 374 0 374 -5 0 -11 55 -15 123 -6 107 -17
213 -46 432 -50 386 -208 911 -400 1330 -40 88 -51 110 -122 245 -313 592
-783 1151 -1318 1568 -174 135 -387 279 -572 386 -99 56 -353 187 -440 225
-27 12 -67 29 -90 40 -69 30 -252 103 -268 106 -8 2 -62 19 -120 39 -58 19
-132 43 -165 52 -33 8 -73 20 -90 24 -81 23 -286 72 -335 80 -30 5 -95 16
-145 25 -134 22 -308 44 -415 50 -52 3 -128 10 -168 16 -85 11 -375 10 -477
-2z m-914 -2649 c179 -14 345 -47 444 -89 470 -199 704 -561 705 -1090 0 -153
-10 -218 -52 -346 -81 -246 -267 -421 -523 -490 -36 -10 -65 -22 -65 -26 0 -5
27 -9 60 -9 111 0 262 -53 364 -129 248 -184 368 -498 368 -961 -1 -169 -4
-212 -26 -322 -51 -254 -145 -437 -310 -603 -194 -196 -389 -294 -741 -372
l-120 -27 -1268 -5 c-698 -4 -1271 -4 -1273 -2 -2 2 -4 1012 -4 2243 l0 2238
1153 0 c699 0 1206 -4 1288 -10z m4087 -532 l-3 -273 -914 -3 c-725 -2 -916 0
-923 10 -9 16 -11 522 -1 531 3 4 420 7 925 7 l918 0 -2 -272z m-663 -614
c565 -42 1001 -357 1203 -869 102 -259 142 -491 142 -831 0 -192 -2 -223 -16
-228 -8 -3 -529 -6 -1157 -6 -627 0 -1144 -3 -1148 -7 -11 -13 9 -180 31 -259
31 -114 82 -205 159 -287 103 -108 216 -167 386 -204 174 -37 442 -17 599 43
87 35 135 66 198 131 67 69 105 140 121 223 l12 60 387 0 c213 0 389 -3 391
-7 2 -5 0 -54 -5 -111 -40 -480 -320 -812 -819 -971 -206 -65 -410 -94 -674
-93 -513 0 -864 101 -1168 336 -532 411 -724 1230 -465 1991 17 50 43 118 59
153 16 34 29 65 29 67 0 12 114 202 152 253 190 258 440 438 743 537 118 38
218 60 345 74 153 18 304 20 495 5z"/>
<path d="M6435 6578 c-3 -7 -4 -231 -3 -498 l3 -485 670 0 670 0 57 23 c62 25
123 84 158 152 12 23 30 85 42 138 17 81 20 119 15 232 -8 198 -48 305 -142
381 -91 73 -50 69 -796 69 -527 0 -671 -3 -674 -12z"/>
<path d="M6432 4303 l3 -598 665 0 c725 0 716 -1 840 58 119 57 209 174 243
317 47 193 27 409 -51 564 -60 118 -185 217 -312 245 -28 7 -296 11 -718 11
l-672 0 2 -597z"/>
<path d="M10925 5580 c-284 -45 -505 -248 -607 -558 -16 -50 -28 -99 -24 -107
5 -13 97 -15 732 -15 l727 0 -6 78 c-11 163 -95 341 -212 450 -69 65 -155 112
-250 137 -72 20 -277 28 -360 15z"/>
</g>
</svg>
